<?xml version="1.0" standalone="no"?>
<!DOCTYPE svg PUBLIC "-//W3C//DTD SVG 1.1//EN" "http://www.w3.org/Graphics/SVG/1.1/DTD/svg11.dtd" >
<svg xmlns="http://www.w3.org/2000/svg">
<metadata></metadata>
<defs>
<font id="imperiaregular" horiz-adv-x="228" >
<font-face units-per-em="1000" ascent="778" descent="-222" />
<missing-glyph horiz-adv-x="232" />
<glyph horiz-adv-x="0" />
<glyph horiz-adv-x="333" />
<glyph unicode=" "  horiz-adv-x="232" />
<glyph unicode="&#x09;" horiz-adv-x="232" />
<glyph unicode="&#xa0;" horiz-adv-x="232" />
<glyph unicode="!" horiz-adv-x="267" d="M171 564q0 -9 -2 -39l-25 -389h-18l-25 389q-2 30 -2 39q0 48 36 48t36 -48zM172 32q0 -16 -11.5 -27.5t-27.5 -11.5t-27 11.5t-11 27.5t11 27.5t27 11.5t27.5 -11.5t11.5 -27.5z" />
<glyph unicode="&#x22;" horiz-adv-x="311" d="M244 575q-3 -26 -8 -70t-9.5 -81.5t-5.5 -42.5h-16q-20 159 -23 194q-2 17 7 27t24 10t23.5 -10t7.5 -27zM129 575q-3 -26 -8 -70t-9.5 -81.5t-5.5 -42.5h-17q-2 20 -11 93t-11 101q-2 17 7 27t24 10t23.5 -10t7.5 -27z" />
<glyph unicode="#" horiz-adv-x="450" d="M420 323h-89l-23 -124h80v-38h-89l-30 -161h-44l29 161h-96l-30 -161h-45l29 161h-79v38h88l23 124h-80v39h88l31 161h45l-30 -161h96l31 161h44l-29 -161h80v-39zM286 323h-97l-23 -124h97z" />
<glyph unicode="$" horiz-adv-x="328" d="M178 -68q-5 2 -23 2l-18 -2v13q0 2 0.5 19t0.5 30h-12q-22 0 -45 3.5t-35 6.5l-12 4v23v34v26h12q0 -24 5 -36q13 -31 76 -31h11v82.5v89.5v47q-64 44 -70 50q-34 32 -34 77q0 50 30.5 78.5t72.5 37.5v49v10q1 -2 16 -2l22 3v-12q-1 -3 -1 -44q20 0 44.5 -5t39.5 -10 l15 -5q-3 -23 0 -68h-18q1 29 -22.5 43.5t-58.5 16.5v-63v-70.5v-49.5q14 -10 32.5 -22.5t30.5 -20.5t15 -11q42 -46 42 -86q0 -119 -119 -140q2 -50 2 -51zM209 192q-13 11 -35 26q0 -120 1 -186q32 11 47.5 36t15.5 55q0 25 -6 38.5t-23 30.5zM110 326q10 -10 28 -22v153 q-26 -9 -39.5 -30.5t-13.5 -41.5q0 -36 25 -59z" />
<glyph unicode="%" horiz-adv-x="634" d="M594 168q0 -81 -28.5 -128.5t-87.5 -47.5q-117 0 -117 176q0 79 30.5 127.5t86.5 48.5q57 0 86.5 -48t29.5 -128zM488 510l-315 -521h-28l314 521h29zM274 337q0 -80 -28.5 -127.5t-88.5 -47.5q-115 0 -115 175q0 79 30 127t85 48q57 0 87 -47.5t30 -127.5zM556 168 q0 74 -16.5 115t-61.5 41q-44 0 -61 -41t-17 -115q0 -39 2.5 -63t10 -47.5t23.5 -34t42 -10.5q48 0 63 38t15 117zM236 337q0 75 -17 116t-62 41q-78 0 -78 -157q0 -79 15 -117t63 -38t63.5 38.5t15.5 116.5z" />
<glyph unicode="&#x26;" horiz-adv-x="542" d="M507 264l-40 1q-14 0 -23.5 -11t-16.5 -39q-15 -66 -44 -114l-13 -20q34 -63 70 -63q7 0 13 0.5t10 3t6.5 4t5.5 6.5t4 6.5t3.5 8t3.5 8.5l5 36h12v-26v-34v-23q-13 -14 -62 -14q-53 0 -101 54q-58 -54 -122 -54q-72 0 -112 32t-40 97q0 50 31.5 85t96.5 77 q-3 4 -5.5 8.5t-5 10t-4.5 8.5q-21 38 -23 79t20.5 70t66.5 29q48 0 72 -32t18 -72t-37 -63q-10 -7 -26.5 -19t-18.5 -13l88 -152l19 -35l9 14q37 60 37 120q0 27 -21 27l-41 -1v22q83 -6 165 0v-22zM217 24q56 0 107 43q-17 22 -36 56q-30 51 -80 137q-45 -33 -66 -62.5 t-21 -74.5q0 -38 25.5 -68.5t70.5 -30.5zM221 344l17 -31l44 31q17 12 19.5 40.5t-13 53t-45.5 24.5t-39 -21.5t-2.5 -47t19.5 -49.5z" />
<glyph unicode="'" horiz-adv-x="241" d="M152 575q-3 -26 -8 -70t-9.5 -81.5t-5.5 -42.5h-17q-2 22 -11.5 97t-11.5 97q-1 17 8 27t24 10t23.5 -10t7.5 -27z" />
<glyph unicode="(" horiz-adv-x="280" d="M252 -83l-14 -7q-72 61 -115.5 166.5t-43.5 199.5q0 95 43.5 201t115.5 166l14 -6q-60 -57 -87 -158t-27 -203q0 -101 27 -202t87 -157z" />
<glyph unicode=")" horiz-adv-x="280" d="M199 284q0 -95 -44 -204t-116 -170l-13 7q59 56 86.5 160.5t27.5 206.5q0 99 -27.5 197.5t-86.5 155.5l13 6q73 -61 116.5 -163t43.5 -196z" />
<glyph unicode="*" horiz-adv-x="290" d="M244 440q-6 -10 -19 -9t-20 11q-32 35 -59 50q2 -40 16 -75q4 -13 -2 -24.5t-17 -11.5t-17 11t-1 25q15 42 15 75q-32 -17 -58 -51q-8 -10 -21.5 -11t-18.5 8q-6 10 1 21t21 13q38 8 73 25q-27 16 -74 25q-14 2 -20.5 12.5t-0.5 20.5q5 10 17.5 9.5t21.5 -10.5 q27 -32 59 -52q0 35 -15 77q-6 13 -0.5 24t17.5 11t18 -11t1 -24q-13 -37 -15 -77q33 21 58 52q8 11 21 12t18 -10q6 -10 -0.5 -20.5t-20.5 -12.5q-46 -10 -74 -26q39 -19 75 -24q13 -1 20 -12t1 -21z" />
<glyph unicode="+" horiz-adv-x="480" d="M423 162h-164v-162h-47v162h-163v42h163v162h47v-162h164v-42z" />
<glyph unicode="," horiz-adv-x="122" d="M102 18q0 -74 -76 -144l-15 9q22 19 44 60q18 36 1 36q-12 0 -21.5 11.5t-9.5 27.5t11 27t27 11t27.5 -11t11.5 -27z" />
<glyph unicode="-" horiz-adv-x="293" d="M249 189h-205v45h205v-45z" />
<glyph unicode="." horiz-adv-x="138" d="M105 32q0 -16 -11.5 -27.5t-27.5 -11.5t-27.5 11.5t-11.5 27.5t11.5 27.5t27.5 11.5t27.5 -11.5t11.5 -27.5z" />
<glyph unicode="/" horiz-adv-x="385" d="M404 651l-353 -720h-36l352 720h37z" />
<glyph unicode="0" horiz-adv-x="387" d="M360 241q0 -115 -41 -182.5t-126 -67.5q-87 0 -127 67t-40 183q0 113 44 181.5t123 68.5q82 0 124.5 -68t42.5 -182zM305 241q0 107 -24 165.5t-88 58.5q-33 0 -55 -16.5t-34 -48.5t-16.5 -70t-4.5 -89q0 -44 1.5 -73t8 -59.5t18 -48t32 -29t50.5 -11.5q36 0 59.5 15.5 t34.5 48t14.5 68t3.5 89.5z" />
<glyph unicode="1" horiz-adv-x="240" d="M210 0q-55 2 -87 2l-76 -2v13q16 0 24 3q22 6 24 39q5 44 5 188v169q-19 -22 -58 -54l-16 15q21 16 59 58t46 56h22q-2 -37 -2 -246q0 -142 4 -184q2 -36 26 -41l29 -3v-13z" />
<glyph unicode="2" horiz-adv-x="322" d="M294 93q-10 -48 -10 -93q-87 2 -118 2l-171 -2q45 60 108.5 156t111.5 165q25 37 25 71q0 26 -21 48t-62 22q-44 0 -77.5 -25t-32.5 -65h-17q3 50 0 76q49 42 125 42q51 0 93.5 -26t42.5 -87q0 -38 -34 -84q-43 -62 -88 -132.5t-82 -124.5q55 -2 83 -2q46 0 64 3 q25 4 34 22l13 34h13z" />
<glyph unicode="3" horiz-adv-x="349" d="M321 142q0 -13 -3.5 -28.5t-14 -37t-27.5 -38.5t-48.5 -29t-71.5 -12q-30 0 -66.5 8t-63.5 10q0 45 -10 93h13q8 -23 13 -34q27 -50 114 -50q38 0 74.5 29.5t36.5 90.5q0 56 -41 83t-101 22q0 6 0.5 10t0 5.5t0 3t0.5 3v4.5q40 0 71.5 25t31.5 75q0 30 -18.5 59.5 t-58.5 29.5q-37 0 -68.5 -28.5t-30.5 -63.5h-17q2 37 0 76q50 42 114 42q30 0 57 -8t50 -35t23 -70q0 -75 -91 -109q54 0 93 -36.5t39 -89.5z" />
<glyph unicode="4" horiz-adv-x="371" d="M326 114q-29 0 -59 1q0 -16 0.5 -36t0.5 -22q4 -37 27 -41l29 -3v-13q-56 2 -87 2l-73 -2v13q14 0 21 3q22 6 25 39q2 24 2 61h-27q-15 0 -86.5 -1t-75.5 -1v24q111 161 222 346h23q-3 -92 -3 -243q0 -63 1 -101l60 1v-27zM57 142q16 0 63.5 -1.5t64.5 -1.5h28 q0 23 0.5 60t0.5 44v147q-22 -39 -87.5 -140t-69.5 -108z" />
<glyph unicode="5" horiz-adv-x="328" d="M299 172q0 -71 -40 -123t-117 -52q-30 0 -54 8t-51 10q0 54 -11 98h11q8 -28 13 -39q27 -50 92 -50q103 0 103 150q0 122 -96 122q-22 0 -41 -8t-28 -16l-8 -7h-15q4 105 0 218q39 -1 104 -1l114 2q-1 -42 2 -89h-13q-1 11 -5 28q-8 25 -33 25q-14 1 -65 1l-40 -1 q-3 -1 -6.5 -1t-4 -1.5t-0.5 -7.5q-5 -66 0 -131l13.5 4.5t11.5 3.5t12.5 1.5t20.5 0.5q57 -3 94 -46.5t37 -98.5z" />
<glyph unicode="6" horiz-adv-x="329" d="M302 163q-1 -71 -35.5 -121.5t-98.5 -50.5q-41 0 -69 18t-42 51t-20 71t-6 87q0 76 16 136t53 100t91 40q22 0 43 -5.5t32 -10.5l10 -6q-3 -58 0 -82h-12q0 22 -5 36q-17 38 -69 38q-23 0 -40 -7.5t-28 -22.5t-18 -31.5t-10.5 -42.5t-5 -46.5t-2.5 -51.5q7 19 36 39.5 t48 20.5q67 0 99.5 -44.5t32.5 -114.5zM251 162q0 26 -0.5 38t-4.5 33.5t-12 32t-24 19t-40 8.5q-36 0 -60 -33.5t-24 -57.5v-14q0 -41 0.5 -59.5t4.5 -44.5t12.5 -37.5t24.5 -20t40 -8.5q32 0 51.5 25t25.5 54.5t6 64.5z" />
<glyph unicode="7" horiz-adv-x="291" d="M293 457q-66 -67 -109.5 -193.5t-62.5 -263.5h-71q31 132 81.5 253.5t118.5 185.5q-9 2 -98 2q-34 0 -52 -1t-20 -1q-27 -2 -33 -24l-7 -43h-14q6 58 6 111q46 -2 121 -2l140 2v-26z" />
<glyph unicode="8" horiz-adv-x="355" d="M329 139q0 -68 -43.5 -105.5t-107.5 -38.5q-67 -1 -109.5 34t-42.5 104q0 45 31.5 79.5t74.5 50.5q-34 18 -55.5 46t-21.5 61q0 62 38.5 91t85.5 29t85.5 -29t38.5 -91q0 -29 -30.5 -56.5t-62.5 -36.5q28 -14 44 -23t36 -26t29.5 -39t9.5 -50zM252 385q0 29 -16.5 53 t-56.5 24t-56.5 -24.5t-16.5 -52.5q0 -34 20.5 -54t58.5 -40q22 11 34.5 20t22.5 28t10 46zM273 123q0 14 -1.5 25.5t-6.5 21.5t-9 17t-13 14.5t-13.5 11.5t-17 10.5t-17 8.5t-19.5 9t-18 8q-77 -46 -77 -132q0 -36 25 -63.5t72 -27.5q44 0 69.5 30.5t25.5 66.5z" />
<glyph unicode="9" horiz-adv-x="329" d="M298 267q0 -118 -42 -197t-126 -79q-23 0 -46 10t-35 20l-12 10v82h12q0 -23 5 -35q23 -57 77 -57q60 0 84 49.5t27 136.5q-6 -21 -35 -40.5t-49 -19.5q-67 0 -99.5 45t-32.5 114q0 74 35 131t99 57q54 0 86 -33t42 -80t10 -114zM242 267q0 113 -10 145q-16 53 -72 53 q-24 0 -41.5 -16t-26 -41.5t-12 -50.5t-3.5 -50q1 -72 13 -96q18 -35 68 -35q36 0 60 33.5t24 57.5z" />
<glyph unicode=":" d="M152 238q0 -16 -11 -27.5t-27 -11.5t-27.5 11.5t-11.5 27.5t11.5 27t27.5 11t27 -11t11 -27zM152 32q0 -16 -11 -27.5t-27 -11.5t-27.5 11.5t-11.5 27.5t11.5 27.5t27.5 11.5t27 -11.5t11 -27.5z" />
<glyph unicode=";" d="M152 238q0 -16 -11 -27.5t-27 -11.5t-27.5 11.5t-11.5 27.5t11.5 27t27.5 11t27 -11t11 -27zM149 18q0 -75 -76 -144l-14 9q22 19 43 60q18 36 1 36q-12 0 -21.5 11.5t-9.5 27.5t11 27t27 11t27.5 -11t11.5 -27z" />
<glyph unicode="&#x3c;" horiz-adv-x="480" d="M431 9l-382 151v53l382 152v-56l-331 -123l331 -121v-56z" />
<glyph unicode="=" horiz-adv-x="480" d="M431 235h-382v50h382v-50zM431 88h-382v51h382v-51z" />
<glyph unicode="&#x3e;" horiz-adv-x="480" d="M431 160l-382 -151v56l330 121l-330 123v56l382 -152v-53z" />
<glyph unicode="?" horiz-adv-x="360" d="M319 463q0 -38 -19.5 -71.5t-44.5 -56t-52 -62.5t-39 -87q-4 -17 -5 -49h-17q0 6 -1 24t0 28q1 42 20.5 84t42 71t41 66t18.5 69q0 40 -27.5 72t-83.5 32q-27 0 -55.5 -12t-35.5 -27l-5 -36h-13q3 58 0 83q59 21 109 21q73 0 120 -37.5t47 -111.5zM189 32 q0 -16 -11 -27.5t-27 -11.5t-27.5 11.5t-11.5 27.5t11.5 27.5t27.5 11.5t27 -11.5t11 -27.5z" />
<glyph unicode="@" horiz-adv-x="633" d="M441 32q137 0 137 171q0 88 -69 157.5t-162 69.5q-115 0 -195 -78.5t-80 -189.5q0 -102 71 -169t178 -67q123 0 218 65l12 -20q-49 -35 -113.5 -53.5t-122.5 -18.5q-121 0 -202.5 75.5t-81.5 187.5q0 124 93 211q88 83 217 83q107 0 184 -76t77 -175q0 -110 -51.5 -162 t-134.5 -52q-17 0 -34.5 17.5t-24.5 42.5q-47 -60 -92 -60q-44 0 -64.5 27.5t-20.5 54.5q0 53 55 85t118 35v113q0 57 -33 60q-38 3 -55.5 -19.5t-17.5 -55.5l-35 -17q-5 20 -5 24q0 40 41.5 66t72.5 26q34 0 64 -27.5t30 -56.5v-209q0 -65 26 -65zM283 38q37 0 70 36v100 q-50 -2 -82.5 -25.5t-32.5 -61.5q0 -22 14.5 -35.5t30.5 -13.5z" />
<glyph unicode="A" horiz-adv-x="654" d="M661 0q-78 3 -98 3l-98 -3v13q18 1 26 3q7 2 11.5 9t1.5 16q-23 74 -74 206q-2 6 -10 6h-209q-7 0 -11 -8q-12 -29 -46 -114.5t-36 -91.5q-4 -18 7 -22l33 -4v-13q-63 3 -82 3l-83 -3v13q26 0 33 4q1 0 5 1t7.5 2.5t9 4.5t10.5 9.5t9 15.5q71 152 220 506q9 26 -3 31 q-6 3 -15.5 4.5t-16.5 1.5h-6v11q51 -3 61 -3l50 3q143 -388 205 -528q15 -36 27 -46q7 -6 17.5 -9t19.5 -4t35 -4v-13zM412 294q-41 118 -89 239q-85 -198 -102 -242q-3 -5 3 -5q87 -2 185 0q7 0 3 8z" />
<glyph unicode="B" horiz-adv-x="519" d="M473 159q0 -17 -6 -38.5t-23.5 -52.5t-60 -51.5t-104.5 -20.5q-33 0 -74 3.5t-54 3.5l-90 -3v13q37 -2 46 10q19 23 19 153v90v123v86v32t-0.5 32.5t-0.5 14.5q0 18 -8 26t-20 11t-21 3l-8 -1v12q56 -4 79 -4q6 0 46 3.5t77 3.5q66 0 108 -39t42 -98q0 -33 -13 -61.5 t-32.5 -45t-34.5 -25.5t-26 -13q65 -1 112 -51t47 -116zM362 470q0 39 -26 66.5t-52 36.5t-46 9q-21 0 -45 -4q-11 -4 -11 -17q-3 -99 0 -217q0 -11 12 -11h10h15.5h15.5q48 0 87.5 36t39.5 101zM410 160q0 72 -52 111t-126 33q-8 -1 -15 -1t-14 0.5t-9 0.5q-12 0 -12 -12 q-4 -102 0 -200q1 -23 2 -33t6 -18t15 -8q25 -4 67 -6q21 0 42.5 5.5t44 18.5t37 41.5t14.5 67.5z" />
<glyph unicode="C" horiz-adv-x="580" d="M565 134q-12 -55 -18 -112q-4 -1 -22.5 -7t-30.5 -8.5t-34 -6.5t-51.5 -6t-65.5 -2q-38 0 -78 8.5t-84 30.5t-77.5 55.5t-55.5 89.5t-22 126q0 135 100 223t235 88q48 0 110.5 -8t78.5 -14q-7 -42 0 -101h-15q0 39 -17 56t-69 24.5t-89 7.5q-116 0 -193.5 -75.5 t-77.5 -200.5q0 -121 78 -195.5t176 -74.5q64 0 105 8.5t51.5 15.5t24.5 20q8 8 14.5 22.5t9.5 25.5l2 10h15z" />
<glyph unicode="D" horiz-adv-x="692" d="M665 304q0 -133 -94 -220.5t-226 -87.5q-54 0 -102 3.5t-56 3.5l-126 -3v13q32 0 43 9q9 6 16 57q2 23 2 221q0 16 -0.5 122.5t-0.5 110.5q0 37 -5 44q-6 6 -20 10t-24 5l-11 1v12q74 -4 124 -4q20 0 82 3.5t111 3.5q22 0 51 -5t72.5 -24.5t78 -50t60 -89t25.5 -135.5z M604 302q0 56 -15.5 101.5t-41 73.5t-54 49t-58 30.5t-49 14t-31.5 4.5q-57 0 -161 -8q-4 0 -6.5 -2.5t-3 -4.5t-1.5 -6.5t-1 -5.5q-3 -12 -3 -248q0 -27 3.5 -125t4.5 -110q3 -22 24 -26q36 -9 134 -9q30 0 63 8.5t68.5 29t63.5 50.5t46 78t18 106z" />
<glyph unicode="E" horiz-adv-x="482" d="M456 113q-10 -53 -10 -113q-115 3 -172 3l-213 -3v12q39 -4 51 15q9 13 9 61q0 1 1 49t2 104t1 78q0 200 -6 236q0 1 -1 9t-2 11t-6.5 8t-14.5 6l-26 4v12q92 -3 143 -3l213 3q-2 -46 0 -103h-11q1 46 -13 59q-12 13 -99 13q-10 0 -57.5 -2.5t-51.5 -3.5q-13 -3 -13 -14 v-199q0 -15 13 -15q4 0 43 -0.5t48 -0.5q71 0 78 4q15 2 18 11l3 20h13q-3 -50 0 -113h-13q3 30 -9 37q-12 9 -88 9q-82 0 -94 -2t-12 -13q0 -46 5 -216q2 -17 9 -24.5t27 -9.5q28 -3 86 -3q38 0 83 3q34 5 43 28q3 8 5.5 18.5t3.5 17.5v7h14z" />
<glyph unicode="F" horiz-adv-x="443" d="M431 502h-13q3 43 -8 55q-16 16 -107 16q-30 0 -67 -1l-36 -2q-15 0 -15 -17q0 -8 -0.5 -106.5t-0.5 -102.5q0 -13 13 -13q86 -4 170 0q15 2 17 10l4 21h11q-4 -57 0 -106l-11 1q0 24 -10 32q-9 8 -97 8q-80 0 -86 -1q-10 -7 -11 -12q0 -144 3 -195q0 -3 0.5 -12t1 -12 t1.5 -10.5t2 -10.5t4 -8t6.5 -7.5t9 -5.5t12.5 -5l36 -6v-12q-85 3 -105 3l-94 -3v13q36 -2 49 13q9 10 14 61q2 22 2 230q0 220 -1 235q0 32 -20 38l-33 3v11q135 -3 194 -3l165 3q-4 -57 0 -102z" />
<glyph unicode="G" horiz-adv-x="628" d="M620 230q-19 1 -32 -2q-17 -5 -17 -28q-5 -60 0 -182q-141 -26 -236 -26q-33 0 -69.5 7t-80.5 28t-78 53.5t-57.5 90t-23.5 130.5q0 70 25 126.5t62 90t83 56t85 31t71 8.5q39 0 72.5 -2.5t50 -5.5t40.5 -8t30 -6q-5 -38 0 -104h-15q3 46 -18 59q-52 32 -160 32 q-45 0 -90 -16t-85 -47.5t-65 -87.5t-25 -127q0 -113 73.5 -191t196.5 -78q83 0 137 16q25 6 23 32q-1 8 -1 63t-1 63q0 8 -3 12.5t-4 5.5t-9 4l-42 3v14q61 -3 89 -3l74 3v-14z" />
<glyph unicode="H" horiz-adv-x="722" d="M662 0q-68 3 -95 3l-98 -3v12q21 0 35 4q10 2 13.5 3.5t9 13.5t6.5 35q2 33 2 221v7.5t-1.5 4t-5 3t-9.5 0.5h-319q-10 0 -13 -2.5t-3 -10.5q0 -121 3 -220q1 -47 28 -54q9 -3 19 -4t16 -1h6v-12q-70 3 -100 3l-95 -3v12q21 0 32 2q9 3 12.5 4.5t10.5 15t9 37.5 q4 53 4 251q0 200 -2 218l-1 9v11t-2 9t-4.5 9t-7.5 5.5t-12 4.5l-37 4v13q52 -3 94 -3l79 3v-12q-36 3 -46 -15q-5 -9 -5 -36q0 -4 -0.5 -90.5t-0.5 -91.5q0 -9 1 -12.5t5 -5.5t13 -2q3 0 58 -1t99 -1h70.5t62 0.5t26.5 0.5q17 2 17 16q0 8 -1 96.5t-1 95.5q0 17 -4 28 q-4 8 -16.5 12.5t-23.5 4.5h-10v13q59 -3 83 -3l84 3v-12q-38 2 -50 -15q-6 -8 -6 -32l1 -93v-132t1 -143t1 -108q0 -43 36 -54q7 -2 15 -3t13 -1l4 1v-13z" />
<glyph unicode="I" horiz-adv-x="307" d="M254 0q-63 3 -102 3l-91 -3v13q16 1 26 4q27 3 30 49q5 54 5 237q0 243 -1 251q-2 27 -20 33l-33 6v11q64 -3 84 -3l81 3v-12q-18 -1 -29 -5q-19 -5 -22 -31q-1 -8 -1 -254q0 -133 4 -233q3 -45 34 -52q10 -3 18.5 -4t12.5 -1l4 1v-13z" />
<glyph unicode="J" horiz-adv-x="285" d="M236 593q-21 0 -29 -3q-22 -12 -23 -40q-3 -90 -3 -248v-268q0 -64 -39 -112q-9 -11 -19.5 -20.5t-19.5 -16.5t-19.5 -12t-18.5 -8.5t-19 -6t-17 -4t-16 -2t-14 -0.5h-12h-9v14h9t22.5 3.5t31.5 10.5t32.5 23t28.5 38q20 38 20 88q0 12 0.5 121.5t0.5 151.5q0 43 -1 143 t-1 102q-2 37 -24 42l-28 4v12q53 -3 83 -3l84 3v-12z" />
<glyph unicode="K" horiz-adv-x="578" d="M600 0q-67 3 -90 3l-106 -3v12q20 -1 28 2q15 7 3 19q-138 153 -252 275q0 -209 6 -242q2 -16 3.5 -23.5t8.5 -15.5t19 -10l38 -5v-12q-64 3 -103 3l-94 -3v12q21 2 34 6q8 1 12 4t8.5 13.5t5.5 30.5q5 54 5 252q0 215 -2 231q0 1 -0.5 7t-1 10t-2.5 9.5t-6 9.5t-10 5 l-33 3v12q53 -3 83 -3l83 3v-13q-14 -1 -22 -2q-31 -6 -32 -39v-231v-8q109 116 229 260q10 14 -4 18l-27 2v13q55 -3 77 -3l78 3v-14q-32 2 -52 -11q-22 -13 -38 -31q-129 -142 -200 -223q139 -153 254 -271q35 -37 66 -42l34 -1v-12z" />
<glyph unicode="L" horiz-adv-x="467" d="M459 113l-13 -113q-126 3 -179 3l-206 -3v12q17 -1 33 4q26 8 30 70q2 48 2 216q0 42 -0.5 139.5t-0.5 99.5q0 1 -0.5 7.5t-0.5 9t-1 8t-2.5 8t-3.5 6.5t-6 6.5t-9 3.5l-29 3v12q64 -3 82 -3l83 3v-12q-21 1 -32 -6q-8 -5 -11 -7.5t-6.5 -12t-3.5 -25.5v-240 q0 -156 3 -213v-6t0.5 -6.5t1 -6t1.5 -6.5t2.5 -5.5t4.5 -5.5t6.5 -4.5t8.5 -4.5t11 -3q22 -4 91 -4q44 0 74 4q1 0 4.5 1t5 1.5t5.5 1.5t6 2t5 3t5 3.5t5 4t4.5 5t3.5 6t3 7.5l9 37h14z" />
<glyph unicode="M" horiz-adv-x="817" d="M809 0q-64 3 -79 3l-93 -3v12q20 1 28 5q4 2 4.5 2t5 3.5t4 7.5t2.5 13.5t0 20.5q-18 235 -46 473q-65 -139 -235 -539h-14q-119 299 -225 535q-20 -208 -23 -231q-2 -17 -9.5 -128t-7.5 -122q-2 -29 16 -34l28 -6v-12q-44 3 -73 3l-84 -3v12q19 0 33 3q1 0 3.5 1t3.5 1 t3.5 1t3.5 2t3.5 2.5t3.5 3.5t3 4.5t3 6t2 8.5l2 10q4 26 13.5 128t10.5 119l20 247v4.5v5v5t-0.5 5t-1 4.5t-1.5 4.5t-2.5 3.5t-3 3.5t-4 2.5t-5.5 2l-26 4v12q47 -3 71 -3l51 3q135 -328 210 -497q70 154 211 497q45 -3 56 -3l69 3v-12q-21 -1 -26 -3q-1 0 -4 -1.5 l-5 -2.5t-5 -3.5t-5 -5.5t-3 -8t0 -11q1 -9 11.5 -115.5t14.5 -140.5q24 -207 28 -234q0 -2 2 -8.5t2.5 -8.5t2.5 -7.5t4 -8.5t5 -6.5t6.5 -6t8.5 -4.5l32 -6v-12z" />
<glyph unicode="N" horiz-adv-x="735" d="M674 592q-12 -1 -20 -4q-23 -6 -24 -36q-5 -63 -5 -250l4 -323q-278 335 -466 545q-1 -157 -1 -222q0 -209 4 -241q3 -37 22 -43l27 -6v-12q-53 3 -75 3l-77 -3v12q14 0 26 4q8 2 13 4.5t9.5 12.5t5.5 27q3 54 3 243q0 201 -3 246q0 28 -19 36l-37 7v13q46 -3 64 -3l48 3 q208 -253 412 -480q-1 162 -1 177q0 215 -5 250q-1 29 -16 33l-27 7v13q50 -3 68 -3l70 3v-13z" />
<glyph unicode="O" horiz-adv-x="677" d="M650 302q0 -72 -27.5 -133t-72.5 -99.5t-100.5 -60t-112.5 -21.5q-63 0 -118 19.5t-98.5 57t-69 99t-25.5 138.5q0 75 29 136.5t75.5 99t100.5 57.5t107 20q142 0 227 -87t85 -226zM593 302q0 114 -76 198.5t-179 84.5q-111 0 -182.5 -76.5t-71.5 -205.5q0 -116 75 -198 t178 -82q104 0 180 72t76 207z" />
<glyph unicode="P" horiz-adv-x="448" d="M442 464q0 -73 -53 -120t-130 -47l-34 1v12q33 -3 65 8q32 10 64 46t32 90q0 56 -41 91.5t-86 35.5q-38 0 -58 -2q-12 -1 -12 -17q0 -4 -0.5 -49t-1 -105.5t-0.5 -102.5q0 -145 4 -237q2 -49 36 -53l32 -3v-12q-52 3 -102 3l-96 -3v12q18 1 32 5q24 4 28 50q5 55 5 237 q0 223 -2 255q-3 26 -21 31l-36 3v12q70 -3 89 -3q5 0 53 3.5t85 3.5q54 0 101 -39t47 -106z" />
<glyph unicode="Q" horiz-adv-x="680" d="M1182 -46q-4 -3 -12.5 -8.5t-37 -18.5t-59.5 -23t-80 -18.5t-100 -8.5q-108 0 -231 52q-103 49 -190 94q-69 -33 -136 -33q-131 0 -220.5 80.5t-89.5 231.5q0 75 29 136t75 98t100 57t107 20q142 0 227 -86t85 -225q0 -68 -42 -137t-73 -95q-8 -7 10 -15q124 -69 168 -89 q1 0 12 -5t14.5 -6.5t16 -6.5t19.5 -7t20.5 -6.5t23.5 -6.5t25.5 -5t29 -4.5t30.5 -2.5t34 -1q141 0 239 51zM592 302q0 114 -76 197.5t-179 83.5q-111 0 -182 -75.5t-71 -204.5q0 -116 74.5 -197.5t177.5 -81.5q45 0 89 16.5t82 48.5t61.5 87.5t23.5 125.5z" />
<glyph unicode="R" horiz-adv-x="578" d="M627 0q-23 -4 -68 -4q-41 0 -70 11.5t-53 48.5q-13 21 -49.5 79.5t-63.5 102t-29 46.5q-5 7 -12 7q-30 -5 -55 -5h-38q-9 0 -9 -9l2 -95q2 -95 2 -111q2 -53 31 -57l42 -2v-12q-66 3 -102 3l-94 -3v12q28 -1 41 6q19 8 22 48q1 31 1 236q0 168 -5 243v7t-0.5 7.5t-1 7 t-2 7.5t-3.5 6t-5.5 5t-7.5 3l-36 5v12q52 -3 76 -3q8 0 57.5 3.5t83.5 3.5q55 0 104 -37t49 -109q0 -87 -75 -139q-13 -9 -7 -18q3 -4 67 -106t69 -108q4 -8 14 -20t27.5 -28t43.5 -26t54 -7v-11zM376 454q0 57 -41 93.5t-92 36.5q-29 0 -52 -5q-5 -1 -7.5 -5.5t-3 -9 t-0.5 -11.5v-9v-218v-4.5t0.5 -3t2 -2t4 -1.5t6.5 -1q15 -1 48.5 1t45.5 8q12 5 17 7.5t21.5 14t25.5 23.5t17 35t8 51z" />
<glyph unicode="S" horiz-adv-x="393" d="M359 173q0 -92 -56 -136.5t-148 -44.5q-27 0 -55.5 5t-43.5 9l-14 5q3 30 0 102h12q0 -28 7 -44q17 -42 95 -42q70 0 104.5 38.5t34.5 88.5q0 31 -8 47.5t-29 37.5q-12 13 -75.5 65.5t-72.5 61.5q-42 40 -42 96q0 53 29 89t64 48.5t71 12.5q26 0 52.5 -6t40.5 -12l14 -6 q-4 -35 0 -86h-13q1 39 -25.5 58.5t-69.5 19.5q-51 0 -78 -32.5t-27 -67.5q0 -44 32 -73q17 -16 79 -67t69 -58q53 -53 53 -109z" />
<glyph unicode="T" horiz-adv-x="516" d="M508 502h-13q-7 34 -7 41q-6 22 -33 22h-152q-9 0 -11 -1.5t-2 -6.5v-57.5t-0.5 -117.5t-0.5 -80q0 -182 4 -242q1 -41 38 -45l28 -3v-12q-70 3 -101 3l-95 -3v12q15 0 27 1q6 1 10 2.5t10 6t10 14t5 24.5q5 52 5 243q0 229 -3 253q-1 6 -3 7.5t-13 1.5h-147 q-30 0 -38 -28l-5 -35h-13q3 31 3 103q159 -3 246 -3l250 3q-6 -46 1 -103z" />
<glyph unicode="U" horiz-adv-x="708" d="M667 0q-53 3 -73 3l-61 -3q3 76 3 89q-80 -102 -195 -102q-101 0 -172.5 51.5t-71.5 149.5q0 22 0.5 61t0.5 54q0 177 -3 237v4q0 14 -0.5 21t-6.5 14.5t-17 9.5l-25 4v12q51 -3 75 -3l87 3v-12l-24 -3q-17 -4 -22 -16q-4 -9 -4 -25q-1 -19 -1 -246q0 -34 0.5 -63 t0.5 -34q0 -88 53.5 -130.5t128.5 -42.5q91 0 144 47.5t53 132.5v88q0 211 -3 243q-1 14 -1.5 20t-5.5 13t-14 9l-28 7v12q45 -3 80 -3l81 3v-12q-15 -2 -23 -5q-1 0 -4.5 -1t-5 -2t-5 -3t-5.5 -5t-4.5 -7.5t-3.5 -11t-1 -15.5q-1 -42 -1 -243q0 -112 5 -227v-10t0.5 -11 t2 -10t4 -10t7 -7.5t11.5 -7t16 -3.5l28 -2v-12z" />
<glyph unicode="V" horiz-adv-x="637" d="M644 593q-13 2 -32 -3q-24 -6 -37 -31q-141 -280 -270 -577q-174 419 -243 566q-18 35 -40 40l-29 5v12q38 -3 81 -3l101 3v-12q-22 0 -31 -2q-24 -8 -18 -24q73 -192 192 -458q110 230 212 464q5 14 -8 17l-34 3v12q63 -3 81 -3l75 3v-12z" />
<glyph unicode="W" horiz-adv-x="866" d="M873 593q-26 -6 -33 -7q-23 -4 -33 -30q-55 -159 -185 -581q-95 265 -192 510q-65 -152 -203 -505q-97 359 -164 570q-10 34 -36 39l-34 4v12q67 -3 87 -3l95 3v-12q-20 1 -33 -2q-23 -8 -18 -27q41 -172 120 -431q110 264 197 491q99 -275 184 -490q71 207 135 425 q8 25 -14 28l-29 6v12q67 -3 81 -3l75 3v-12z" />
<glyph unicode="X" horiz-adv-x="574" d="M581 0q-69 3 -96 3l-100 -3v12q17 -1 26 1q10 3 12 6.5t-5 22.5q-66 116 -143 234q-125 -193 -150 -236q-14 -21 3 -26l26 -2v-12q-47 3 -84 3l-77 -3v12q15 1 28 4q23 4 40 23q88 113 191 271q-82 130 -158 243q-20 29 -44 34l-43 6v12q70 -3 91 -3l95 3v-12 q-19 0 -29 -2q-21 -5 -9 -23q75 -120 131 -207q132 198 137 207q9 17 -3 22l-30 3v12q51 -3 75 -3l83 3v-12q-28 -1 -41 -5q-27 -6 -47 -38l-151 -223q105 -162 179 -267q25 -34 53 -42l40 -6v-12z" />
<glyph unicode="Y" horiz-adv-x="562" d="M577 591q-49 -6 -84 -25q-65 -36 -119 -123t-59 -160q-4 -73 1 -212q2 -45 30 -53l37 -6v-12q-57 3 -93 3l-100 -3v12q15 1 28 5q10 2 14.5 4.5t10 14.5t6.5 35q7 165 -1 210q-10 61 -64.5 151t-113.5 132q-28 19 -85 22v12q34 11 81 11q54 0 103 -51q31 -32 73 -111 t47 -115q7 43 43 118t83 115q50 44 111 44q10 0 23 -2t21 -4l7 -2v-10z" />
<glyph unicode="Z" horiz-adv-x="521" d="M520 113q-13 -65 -13 -113q-119 3 -235 3l-272 -3q178 236 404 570q-23 1 -134 1q-48 0 -88 -0.5t-61.5 -0.5h-25.5q-34 -2 -42 -31l-6 -37h-14q4 52 3 103q92 -2 234 -2l236 2q-235 -319 -399 -563q40 -3 163 -3q142 0 179 5q30 4 42 27l16 42h13z" />
<glyph unicode="[" horiz-adv-x="280" d="M252 -85h-150v760h150v-24h-105v-712h105v-24z" />
<glyph unicode="\" horiz-adv-x="385" d="M367 -69l-352 720h36l353 -720h-37z" />
<glyph unicode="]" horiz-adv-x="280" d="M178 -85h-149v24h103v712h-103v24h149v-760z" />
<glyph unicode="^" horiz-adv-x="480" d="M394 222h-57l-99 273l-96 -273h-57l130 316h50z" />
<glyph unicode="_" horiz-adv-x="409" d="M394 -95h-378v38h378v-38z" />
<glyph unicode="`" d="M223 508h-17q-98 51 -198 93v11q36 -2 102 0q20 -22 113 -104z" />
<glyph unicode="a" horiz-adv-x="338" d="M168 366q-37 3 -54.5 -19.5t-17.5 -55.5l-35 -17q-5 13 -5 24q0 40 41.5 66t72.5 26q33 0 63 -27.5t30 -56.5v-209q0 -30 7.5 -47.5t18.5 -17.5l37 4l10 -15q-12 -11 -34 -20.5t-37 -9.5q-17 0 -34.5 17.5t-24.5 42.5q-47 -60 -92 -60q-44 0 -64.5 27.5t-20.5 54.5 q0 53 55 85t118 35v113q0 57 -34 60zM131 38q38 0 71 36v100q-50 -2 -82.5 -25.5t-32.5 -61.5q0 -22 14.5 -35.5t29.5 -13.5z" />
<glyph unicode="b" horiz-adv-x="438" d="M202 -8q-37 4 -76 38l-37 -30h-12v549q0 24 -12 24l-35 -3v15q11 0 91 23h17v-229l-4 -38q20 12 46 24t42 19l16 6q72 0 118.5 -58.5t46.5 -141.5q0 -88 -54 -147.5t-147 -50.5zM338 176q8 79 -19.5 127.5t-87.5 48.5q-43 0 -93 -34v-273q25 -21 47 -25q57 -9 101.5 36.5 t51.5 119.5z" />
<glyph unicode="c" horiz-adv-x="332" d="M184 368q-55 -5 -76.5 -58.5t-12.5 -133.5q10 -75 53.5 -120t99.5 -36q34 6 62 24l10 -15q-34 -32 -89 -37q-92 -9 -145.5 50.5t-53.5 147.5q0 82 49 140.5t119 58.5q45 0 79.5 -22.5t34.5 -69.5q0 -11 -6 -25l-35 17q0 35 -21 59t-68 20z" />
<glyph unicode="d" horiz-adv-x="439" d="M235 18q31 6 67 36v222q-8 38 -45.5 67t-72.5 25q-31 -4 -51.5 -24.5t-28 -48.5t-11 -60t1.5 -59q10 -73 51.5 -119.5t88.5 -38.5zM409 17v-17h-99l-5 31q-44 -36 -89 -41q-82 -8 -133 52.5t-51 147.5q0 82 49 140.5t119 58.5q63 0 106 -66l-4 42v184q0 24 -11 24l-36 -3 v15q12 0 91 23h17v-542q0 -39 46 -49z" />
<glyph unicode="e" horiz-adv-x="351" d="M331 230q-19 1 -238 1q-1 -9 2 -55q10 -75 53.5 -120t99.5 -36q34 6 62 24l10 -15q-34 -32 -89 -37q-92 -9 -145.5 50.5t-53.5 147.5q0 82 49 140.5t119 58.5q37 0 64.5 -18t41 -45.5t19.5 -52t6 -43.5zM184 368q-73 -10 -88 -98h169q0 43 -22 73t-59 25z" />
<glyph unicode="f" horiz-adv-x="223" d="M75 66v273h-52v31l52 8v30q0 89 33.5 144t106.5 55q16 0 32 -1.5t23 -3.5l8 -1l-11 -30q-52 16 -73 13q-36 -6 -48.5 -28t-12.5 -61q0 -13 2 -56t2 -61h78l-15 -39h-63v-273q0 -40 45 -49v-17h-152v17q23 2 34 13t11 36z" />
<glyph unicode="g" horiz-adv-x="422" d="M30 234q0 65 47.5 110t114.5 45q64 0 114 -45q53 45 89 46q16 1 28.5 -11.5t12.5 -29.5t-12 -29.5t-29 -12.5q-16 0 -28 11.5t-13 28.5q-15 -5 -34 -19q34 -42 34 -94q0 -64 -47 -108.5t-115 -44.5q-30 0 -66 12q-19 -1 -35.5 -10.5t-16.5 -27.5t34 -26.5t85 -4.5 q102 7 150 -17.5t48 -93.5q0 -43 -60 -85.5t-138 -49.5q-60 -5 -101 1.5t-69 34t-28 76.5q0 39 31 63t56 24v-39q-26 0 -48 -21t-20 -47q2 -27 41 -43t94 -16q11 0 33 1.5t26 1.5q72 10 117 38.5t45 61.5q0 20 -11.5 31.5t-42.5 15t-48 3.5t-64 -2q-17 -1 -26 -1 q-121 -5 -121 83q0 50 37 68q-64 43 -64 122zM101 223q8 -62 31.5 -94.5t75.5 -26.5q78 9 78 101q0 7 -1 20.5t-1 21.5q-9 62 -33 95.5t-76 27.5q-77 -10 -77 -102q0 -8 1.5 -23.5t1.5 -19.5z" />
<glyph unicode="h" horiz-adv-x="464" d="M77 66v483q0 24 -12 24l-35 -3v15q11 0 91 23h17v-229l-4 -56q20 16 53.5 32.5t56.5 25.5l24 9q57 0 87.5 -32.5t30.5 -66.5v-225q0 -39 45 -49v-17h-152v17q23 2 34.5 13t11.5 36v225q0 24 -17.5 42.5t-54.5 18.5q-46 0 -115 -55v-231q0 -39 46 -49v-17h-152v17 q23 2 34 13t11 36z" />
<glyph unicode="i" horiz-adv-x="214" d="M68 529q0 17 11.5 28.5t27.5 11.5q17 0 28.5 -11.5t11.5 -28.5q0 -16 -11.5 -27.5t-28.5 -11.5t-28 11t-11 28zM77 66v258q0 24 -12 24l-35 -4v16q14 0 91 22h17v-316q0 -39 46 -49v-17h-152v17q23 2 34 13t11 36z" />
<glyph unicode="j" horiz-adv-x="214" d="M138 382v-372q0 -90 -33.5 -144.5t-106.5 -54.5l-63 5l12 30q51 -16 72 -11q36 6 48 27.5t12 61.5q0 12 -1 42.5t-1 47.5v310q0 24 -12 24l-35 -4v16q14 0 91 22h17zM68 529q0 17 11.5 28.5t27.5 11.5q17 0 28.5 -11.5t11.5 -28.5q0 -16 -11.5 -27.5t-28.5 -11.5t-28 11 t-11 28z" />
<glyph unicode="k" horiz-adv-x="432" d="M291 317l-85 -79q125 -148 149 -176q15 -17 28.5 -26.5t21.5 -12t26 -6.5v-17h-152v17q22 1 22 10t-25 37l-116 139h-22v-137q0 -39 46 -49v-17h-152v17q23 2 34 13t11 36v483q0 23 -12 23l-35 -3v16q14 0 91 22h17v-396q102 96 118 109q20 18 17 28.5t-26 12.5v17h149 v-17q-6 -1 -21 -2.5t-24 -3.5t-25.5 -11.5t-34.5 -26.5z" />
<glyph unicode="l" horiz-adv-x="214" d="M77 66v483q0 24 -12 24l-35 -3v15q11 0 91 23h17v-542q0 -39 46 -49v-17h-152v17q23 2 34 13t11 36z" />
<glyph unicode="m" horiz-adv-x="708" d="M570 66v225q0 24 -17.5 42.5t-54.5 18.5q-47 0 -113 -54q0 -1 1 -4v-3v-225q0 -40 45 -49v-17h-153v17q23 2 35 13t12 36v225q0 24 -17.5 42.5t-54.5 18.5q-46 0 -115 -55v-231q0 -39 46 -49v-17h-152v17q23 2 34 13t11 36v259q0 24 -12 24l-35 -5v16q14 0 91 22h17 l-4 -59q20 16 53.5 32.5t56.5 25.5l24 9q44 0 72.5 -20.5t38.5 -48.5q21 16 54.5 33t56.5 26l24 10q57 0 87 -32.5t30 -66.5v-225q0 -40 46 -49v-17h-152v17q23 2 34 13t11 36z" />
<glyph unicode="n" horiz-adv-x="464" d="M77 66v258q0 24 -12 24l-35 -4v16q14 0 91 22h17l-4 -59q20 16 53.5 32.5t56.5 25.5l24 9q57 0 87.5 -32.5t30.5 -66.5v-225q0 -40 45 -49v-17h-153v17q23 2 35 13t12 36v225q0 24 -17.5 42.5t-54.5 18.5q-17 0 -50.5 -15.5t-64.5 -39.5v-231q0 -39 46 -49v-17h-152v17 q23 2 34 13t11 36z" />
<glyph unicode="o" horiz-adv-x="419" d="M24 190q0 82 54.5 140.5t131.5 58.5q81 0 133.5 -58t52.5 -141q0 -82 -54.5 -140t-131.5 -58t-131.5 58t-54.5 140zM90 176q10 -78 46.5 -124t96.5 -39q59 7 84 61t15 132t-46.5 124.5t-96.5 38.5q-59 -7 -83.5 -60.5t-15.5 -132.5z" />
<glyph unicode="p" horiz-adv-x="438" d="M338 176q8 79 -19.5 127.5t-87.5 48.5q-40 0 -93 -36v-271q25 -21 47 -25q57 -9 101.5 36.5t51.5 119.5zM77 -165v489q0 24 -12 24l-35 -4v16q14 0 91 22h17l-4 -41q20 11 46 23.5t42 19.5l16 6q72 0 118.5 -58.5t46.5 -141.5q0 -88 -54 -147.5t-147 -50.5q-33 4 -64 28 v-185q0 -39 46 -50v-16h-152v16q23 3 34 14t11 36z" />
<glyph unicode="q" horiz-adv-x="419" d="M235 18q31 6 67 36v211q0 35 -41.5 71t-76.5 32q-31 -4 -51.5 -24.5t-28 -48.5t-11 -60t1.5 -59q10 -73 51.5 -119.5t88.5 -38.5zM302 -165v194q-45 -35 -86 -39q-82 -8 -133 52.5t-51 147.5q0 82 49 140.5t119 58.5q32 0 64 -24.5t44 -50.5l38 64h17v-543q0 -39 46 -50 v-16h-152v16q23 3 34 14t11 36z" />
<glyph unicode="r" horiz-adv-x="313" d="M77 66v258q0 24 -12 24l-35 -4v16q14 0 91 22h17l-4 -59q10 9 36.5 25.5t47.5 29.5l22 12q25 0 40 -12t15 -29t-12.5 -29.5t-29.5 -12.5q-16 0 -27.5 11.5t-12.5 28.5q-9 -3 -19 -9t-15 -9.5t-20.5 -16t-20.5 -15.5v-231q0 -39 46 -49v-17h-152v17q23 2 34 13t11 36z" />
<glyph unicode="s" horiz-adv-x="347" d="M268 245l-8 46q-4 23 -28.5 46t-56.5 23q-45 0 -66.5 -17.5t-21.5 -38.5q0 -22 23.5 -38t57.5 -26.5t67.5 -23.5t57 -37t23.5 -59q0 -62 -34.5 -95t-97.5 -33q-32 0 -67.5 15.5t-55.5 37.5l-8 -45h-16v160h16l8 -50q8 -39 49.5 -67t73.5 -28q52 0 73 23.5t21 48.5 q0 20 -24 34.5t-58 25.5t-67.5 24.5t-57.5 39.5t-24 63q0 45 32.5 76.5t96.5 31.5q23 0 48.5 -8.5t35.5 -21.5l8 45h16v-152h-16z" />
<glyph unicode="t" horiz-adv-x="223" d="M23 339v31l53 8l31 134h31q0 -81 -1 -134h78l-15 -39h-63v-242q0 -65 26 -65l43 4l9 -15q-11 -10 -36.5 -20t-40.5 -10q-22 0 -42.5 27.5t-20.5 60.5v260h-52z" />
<glyph unicode="u" horiz-adv-x="464" d="M210 26q16 0 50 15.5t65 40.5v250q0 12 -11.5 19.5t-23.5 8.5l-11 2v17h108l-1 -324q0 -24 11 -24l36 3v-16q-16 0 -91 -22h-17l4 59q-20 -17 -54 -33.5t-57 -25.5l-24 -8q-57 0 -87 32.5t-30 67.5v244q0 13 -12 20.5t-23 8.5l-12 1v17h109l-1 -291q0 -24 17.5 -43 t54.5 -19z" />
<glyph unicode="v" horiz-adv-x="435" d="M221 1h-27l-131 327q-6 16 -19.5 24t-23.5 8l-11 1v17h152v-17q-38 0 -38 -22q0 -1 2 -11l94 -236l6 -25l6 25l94 236q2 8 2 11q0 10 -9.5 15.5t-19.5 5.5l-9 1v17h137v-17q-43 -2 -58 -35z" />
<glyph unicode="w" horiz-adv-x="632" d="M292 321l-3 7q-6 17 -19.5 25t-24.5 8h-11v17h152v-17q-38 0 -38 -22q0 -3 3 -11l79 -226l6 -27l7 27l79 226q3 6 3 11q0 10 -9.5 15.5t-19.5 5.5l-9 1v17h137v-17q-46 -1 -59 -35l-132 -325h-27l-93 262l-107 -262h-27l-116 327q-6 16 -19.5 24.5t-23.5 8.5h-11v17h152 v-17q-38 0 -38 -22q0 -1 2 -11l78 -226l6 -27l6 27z" />
<glyph unicode="x" horiz-adv-x="408" d="M232 201l105 -151q10 -14 23.5 -22.5t22.5 -9.5l9 -1v-17h-152v17q33 1 33 16q0 4 -2 6l-82 120l-79 -120q-3 -3 -3 -5q0 -7 11.5 -11t22.5 -5l11 -1v-17h-137v17q34 1 60 35l101 126l-105 150q-10 14 -23.5 22t-22.5 10l-9 1v17h152v-17q-33 -2 -33 -16q0 -2 2 -6 l82 -117l80 117q0 1 1 3v2q0 7 -11 11t-22 5l-11 1v17h137v-17q-34 -2 -61 -35z" />
<glyph unicode="y" horiz-adv-x="446" d="M378 326l-146 -318q-22 -49 -38.5 -78.5t-40.5 -60t-54 -44.5t-67 -14l-63 5v45q53 -17 84 -11q96 17 153 158l5 15h-23l-124 305q-7 16 -20.5 24t-23.5 8l-10 1v17h152v-17q-38 0 -38 -22q0 -1 2 -11l93 -235l10 -33l11 33l96 235q0 2 0.5 6t0.5 5q0 10 -9.5 15.5 t-19.5 5.5l-9 1v17h137v-17q-42 -2 -58 -35z" />
<glyph unicode="z" horiz-adv-x="369" d="M345 0h-321v25l241 324l-168 -10q-15 0 -23 -13.5t-9 -27.5l-1 -13h-15v93h295v-25l-240 -324l191 12q15 1 23.5 14t9.5 25l1 13h16v-93z" />
<glyph unicode="{" horiz-adv-x="339" d="M292 -87q-95 3 -130 56q-13 19 -16.5 57.5t-4 78t-5.5 78.5t-27 66.5t-62 33.5v7q41 9 62 37t26 66t5 76.5t4 76.5t18 59q36 54 130 55l-15 -14q-37 -3 -60.5 -16.5t-32.5 -44.5q-7 -22 -8.5 -62t-3.5 -75t-9.5 -70t-31 -59.5t-63.5 -31.5q41 -5 65 -29.5t32 -61.5 t9.5 -73t2.5 -75.5t7 -58.5q9 -31 32.5 -44.5t60.5 -16.5z" />
<glyph unicode="|" horiz-adv-x="199" d="M119 -162h-39v816h39v-816z" />
<glyph unicode="}" horiz-adv-x="339" d="M292 283q-50 -8 -72 -49t-21.5 -88.5t-2.5 -101t-18 -75.5q-38 -53 -131 -56l15 15q77 7 93 61q6 19 7 58.5t2.5 75.5t9.5 73t32 61.5t65 29.5q-40 7 -64 31.5t-31.5 59.5t-9 70t-3 75t-8.5 62q-16 54 -93 61l-15 14q92 -1 131 -55q14 -21 18 -59t4 -76.5t4.5 -76.5 t25.5 -66t62 -37v-7z" />
<glyph unicode="~" horiz-adv-x="480" d="M439 243q-13 -108 -98 -108q-35 0 -106.5 35t-99.5 35q-22 0 -37.5 -16t-19.5 -43l-37 -15q16 108 98 108q35 0 105.5 -34.5t101.5 -34.5q46 0 58 58z" />
<glyph unicode="&#xa1;" horiz-adv-x="267" d="M172 574q0 -16 -11.5 -27.5t-27.5 -11.5t-27 11.5t-11 27.5t11 27t27 11t27.5 -11t11.5 -27zM168 41q0 -48 -36 -48q-37 0 -37 48q0 4 1.5 18.5t1.5 21.5l25 389h17l26 -389q2 -32 2 -40z" />
<glyph unicode="&#xa2;" horiz-adv-x="352" d="M212 -87h-31v80q-70 10 -109.5 66t-39.5 131q0 76 43 132.5t106 64.5v78h31v-77q42 -3 72 -25.5t30 -65.5q0 -11 -6 -25l-35 17q0 28 -14.5 50.5t-46.5 27.5v-348q5 -1 19 -1q39 0 79 26l10 -15q-41 -36 -108 -38v-78zM93 223q0 -60 21.5 -116t66.5 -78v339 q-45 -6 -66.5 -47.5t-21.5 -97.5z" />
<glyph unicode="&#xa3;" horiz-adv-x="382" d="M362 93l-10 -93q-102 2 -144 2l-170 -2v12q14 -1 26 3q23 5 24 56q2 38 2 170v17h-74v30h73v66q0 63 36.5 98t105.5 35q37 0 59.5 -7t36 -15t23.5 -9q-3 -24 0 -82h-14q2 43 -28 66t-77 23q-43 0 -65.5 -28t-23.5 -70v-77h110v-30h-110v-16q0 -26 1 -95.5t1 -73.5v-4.5 t0.5 -5t1 -5t1.5 -5t2 -4.5t3.5 -4.5t5 -3.5t6.5 -3.5t9 -2.5q21 -4 65 -4t65 4q33 9 38 28l6 30h15z" />
<glyph unicode="&#xa4;" horiz-adv-x="427" d="M72 442l49 -50q40 31 93 31q50 0 92 -31l48 50l35 -35l-48 -50q29 -40 29 -96q0 -54 -30 -95l49 -51l-35 -36l-48 51q-39 -28 -93 -28q-57 0 -92 27l-49 -50l-35 36l50 50q-32 42 -32 96q0 55 31 96l-49 50zM109 263q0 -50 29 -81.5t76 -31.5q44 0 73 32t29 79 q0 48 -28.5 80t-73.5 32q-46 0 -75.5 -32t-29.5 -78z" />
<glyph unicode="&#xa5;" horiz-adv-x="622" d="M607 591q-49 -6 -84 -25q-58 -32 -108.5 -107.5t-64.5 -146.5h152v-47h-157q-1 -15 -1 -55h158v-46h-158q0 -17 1 -38t1.5 -35.5t0.5 -19.5q0 -45 29 -53l38 -6v-12q-58 3 -94 3l-99 -3v12q15 1 27 5q10 2 14.5 4.5t10.5 14.5t6 35q2 42 2 93h-161v46h162q0 9 -0.5 28.5 t-1.5 26.5h-160v47h151q-20 64 -69.5 139.5t-101.5 112.5q-28 19 -84 22v12q33 11 80 11q53 0 104 -51q31 -32 72.5 -111t46.5 -115q7 43 43.5 118t83.5 115q50 44 111 44q10 0 22.5 -2t20.5 -4l7 -2v-10z" />
<glyph unicode="&#xa6;" horiz-adv-x="199" d="M119 311h-39v340h39v-340zM119 -161h-39v340h39v-340z" />
<glyph unicode="&#xa7;" horiz-adv-x="370" d="M319 165q1 -77 -52 -115q22 -32 22 -63q1 -74 -44.5 -110t-119.5 -37q-22 0 -45.5 3t-35.5 6l-12 3q2 39 -2 83h12q0 -23 6 -36q14 -31 77 -29q56 1 83.5 31t26.5 70q-1 24 -7.5 37t-23.5 30q-9 8 -60 50t-60 51q-35 31 -36 75q-1 37 18 64t47 39h-1q-34 32 -35 75 q-1 62 42 92t92 32q20 0 42 -4.5t34 -9.5l12 -5q0 -50 1 -68l-17 -1q1 31 -18.5 45t-54.5 14q-41 -1 -62 -26t-20 -52q0 -35 27 -58q15 -14 65 -54.5t55 -44.5q43 -43 44 -87zM263 149q0 25 -6.5 38t-24.5 30q-10 10 -95 79q-18 -12 -28 -31t-10 -35q2 -37 26 -59 q12 -11 56.5 -46t56.5 -45q25 28 25 69z" />
<glyph unicode="&#xa8;" d="M229 574q0 -16 -11.5 -27.5t-27.5 -11.5t-27 11.5t-11 27.5t11 27t27 11t27.5 -11t11.5 -27zM76 574q0 -16 -11.5 -27.5t-27.5 -11.5t-27 11.5t-11 27.5t11 27t27 11t27.5 -11t11.5 -27z" />
<glyph unicode="&#xa9;" horiz-adv-x="619" d="M587 297q0 -115 -81.5 -196t-195.5 -81q-115 0 -196.5 81t-81.5 196t81.5 196.5t196.5 81.5q114 0 195.5 -81.5t81.5 -196.5zM571 297q0 109 -76.5 185.5t-184.5 76.5q-109 0 -186 -76.5t-77 -185.5q0 -108 77 -185t186 -77q108 0 184.5 77t76.5 185zM457 205 q-8 -38 -12 -75q-5 -2 -24.5 -11.5t-46 -16t-63.5 -6.5q-25 0 -50.5 5.5t-54 20t-50.5 36t-36.5 58t-14.5 81.5q0 87 65 144t153 57q21 0 40 -2.5t33.5 -6.5t23 -7.5t17.5 -8t10 -4.5q-3 -21 0 -67h-11q0 25 -11 36q-36 36 -103 36q-75 0 -124.5 -48t-49.5 -129 q0 -79 49.5 -126.5t113.5 -47.5q19 0 34.5 1.5t26.5 5t19 6.5t15 8.5t10 8.5t7 8t5 6q5 5 9.5 14.5t6.5 16.5l2 7h11z" />
<glyph unicode="&#xaa;" horiz-adv-x="420" d="M399 276h-113v8q10 1 14 2q4 0 6.5 4t1.5 10q-5 16 -21 58.5t-20 54.5q-2 3 -6 3h-117q-4 0 -6 -4q-26 -57 -46 -114q-6 -8 3 -12l20 -2v-8h-95v8q14 0 18 2q1 0 4.5 1t6 2.5t6.5 5.5t7 11q4 8 120 279q2 3 2.5 9t-3.5 8l-21 4v8q18 -2 38 -2q19 0 31 2q81 -217 115 -295 q9 -21 15 -25q8 -7 40 -10v-8zM257 440l-50 133q-9 -19 -32 -72t-27 -63q-1 -1 -0.5 -1.5t3.5 -0.5q49 -2 103 0q4 0 3 4z" />
<glyph unicode="&#xab;" horiz-adv-x="360" d="M314 321l-77 -107l73 -120l-16 -14l-118 127l121 126zM183 321l-78 -107l74 -120l-16 -14l-118 127l120 126z" />
<glyph unicode="&#xac;" horiz-adv-x="385" d="M347 67h-49v95h-249v50h298v-145z" />
<glyph unicode="&#xad;" horiz-adv-x="293" d="M249 189h-205v45h205v-45z" />
<glyph unicode="&#xae;" horiz-adv-x="325" d="M300 478q0 -58 -40.5 -98.5t-96.5 -40.5q-57 0 -97.5 40.5t-40.5 98.5q0 57 40.5 97.5t97.5 40.5q56 0 96.5 -40.5t40.5 -97.5zM284 478q0 50 -36 85.5t-85 35.5q-50 0 -85.5 -36t-35.5 -86t35.5 -85.5t85.5 -35.5q47 0 83 33q-22 2 -31 18l-43 68q-2 3 -4 3 q-2 -2 -16 -2h-12q-2 0 -2 -2v-28q1 -29 1 -34q0 -16 8 -17l14 -1v-4q-20 1 -30 1l-29 -1v4q8 0 13 2t6 15v69q0 8 -0.5 40.5t-0.5 33.5q-2 12 -6 13l-11 2v3q15 -1 23 -1q2 0 17 1t25 1q16 0 31 -11t15 -33q0 -23 -22 -42q-4 -1 -3 -5q1 -1 20.5 -31.5t20.5 -32.5 q6 -18 22 -22q32 35 32 82zM196 527q0 17 -12 27.5t-28 10.5q-11 0 -15 -1q-3 -1 -3 -10v-66q0 -2 4 -3q21 0 28 2q26 13 26 40z" />
<glyph unicode="&#xaf;" d="M220 579h-212v46h212v-46z" />
<glyph unicode="&#xb0;" horiz-adv-x="266" d="M230 519q0 -40 -29 -68t-69 -28t-67.5 28t-27.5 68t27.5 68.5t67.5 28.5t69 -28.5t29 -68.5zM191 519q0 25 -17 42t-42 17q-23 0 -40 -17t-17 -42q-1 -24 16 -40.5t41 -16.5q25 0 42 16.5t17 40.5z" />
<glyph unicode="&#xb1;" horiz-adv-x="480" d="M431 202h-164v-129h-55v129h-163v50h163v129h55v-129h164v-50zM431 -8h-382v49h382v-49z" />
<glyph unicode="&#xb2;" horiz-adv-x="240" d="M219 329q-8 -32 -8 -64h-201q31 41 74.5 108t78.5 116q18 25 18 50q0 18 -14.5 33.5t-43.5 15.5q-31 0 -54 -18t-22 -45h-13q2 27 0 53q45 30 88 30q36 0 65.5 -18.5t29.5 -61.5q0 -27 -23 -58q-31 -43 -62.5 -92.5t-57.5 -86.5q39 -3 58 -3q26 0 46 3q17 1 22 15l10 23 h9z" />
<glyph unicode="&#xb3;" horiz-adv-x="252" d="M231 363q0 -12 -5 -26.5t-16 -33t-36 -30.5t-60 -12q-22 0 -48 6t-42 8q0 30 -8 64h10q5 -16 8 -24q19 -34 80 -34q27 0 52.5 20.5t25.5 63.5q0 39 -29 57.5t-71 15.5q0 8 2 18q27 0 49 17.5t22 53.5q0 21 -13 41t-41 20q-25 0 -47 -19.5t-22 -44.5h-12q3 35 0 53 q39 29 80 29q35 0 62.5 -17.5t27.5 -60.5q0 -55 -63 -77q37 0 65.5 -26t28.5 -62z" />
<glyph unicode="&#xb4;" d="M221 601q-105 -44 -199 -93h-17q93 82 112 104q68 -2 104 0v-11z" />
<glyph unicode="&#xb6;" horiz-adv-x="493" d="M462 0q-55 2 -87 2h-112l-85 -2v12q15 1 25 2q28 4 28 42q4 76 4 188q0 33 -0.5 81t-0.5 83.5v38.5q0 14 -11 14q-2 0 -17 1t-28 1q-36 0 -67.5 -27.5t-31.5 -72.5q0 -43 24 -71t50 -36q11 -3 24 -4.5t21 -1.5h7v-12h-27q-63 0 -106.5 37t-43.5 95q0 54 39 85.5t83 31.5 q29 0 69.5 -2.5t44.5 -2.5q18 0 55 -0.5t56 -0.5l70 2v-12q-14 0 -24 -3q-16 -5 -17 -25v-202q0 -153 3 -184q4 -37 27 -41l28 -3v-13zM352 243v198q-4 23 -17 27q-16 4 -29 2q-15 -4 -15 -26q-2 -12 -2 -200q0 -140 4 -188q2 -24 7.5 -31t14.5 -9q5 -2 8 0q22 6 25 39 q4 35 4 188z" />
<glyph unicode="&#xb7;" d="M152 297q0 -16 -11 -27t-27 -11t-27.5 11t-11.5 27t11.5 27.5t27.5 11.5t27 -11.5t11 -27.5z" />
<glyph unicode="&#xb8;" d="M196 -103q0 -29 -26 -50.5t-61 -21.5q-36 0 -75 21l-2 25q34 -21 59 -21q30 0 44.5 14t14.5 33q0 17 -14 30t-42 13q-12 0 -26 -5l13 68h21l-2 -48q16 3 25 3q29 0 50 -18t21 -43z" />
<glyph unicode="&#xb9;" horiz-adv-x="186" d="M155 265h-114v9q11 1 16 2q16 0 17 27q4 33 4 131v119q-16 -18 -41 -38l-11 10q15 11 42 41.5t32 39.5h16q-3 -39 -3 -173q0 -16 1.5 -69.5t1.5 -58.5q2 -26 18 -29l21 -2v-9z" />
<glyph unicode="&#xba;" horiz-adv-x="399" d="M375 441q0 -80 -53.5 -128t-121.5 -48q-75 0 -125.5 45.5t-50.5 130.5q0 81 55 128t121 47q79 0 127 -49t48 -126zM341 441q0 64 -42 110t-99 46q-63 0 -102 -41.5t-39 -113.5q0 -66 41.5 -111t99.5 -45q57 0 99 39.5t42 115.5z" />
<glyph unicode="&#xbb;" horiz-adv-x="359" d="M314 207l-120 -127l-17 12l76 108l-74 120l16 13zM183 207l-120 -127l-18 12l76 108l-72 120l15 13z" />
<glyph unicode="&#xbc;" horiz-adv-x="491" d="M460 81h-41q1 -19 1 -40q2 -26 19 -29l19 -2v-9q-38 2 -60 2l-51 -2v9q10 1 15 2q15 3 17 28q2 16 2 41h-133v16q77 114 156 242h16q-2 -63 -2 -169q0 -44 1 -71l41 1v-19zM457 616l-399 -627h-29l400 627h28zM155 265h-114v9q11 1 16 2q16 0 17 27q4 33 4 131v119 q-16 -18 -41 -38l-11 10q15 11 42 41.5t32 39.5h16q-3 -39 -3 -173q0 -16 1.5 -69.5t1.5 -58.5q2 -26 18 -29l21 -2v-9zM272 101q11 0 44.5 -1t45.5 -1h19q1 28 1 72v103q-16 -27 -62 -98.5t-48 -74.5z" />
<glyph unicode="&#xbd;" horiz-adv-x="539" d="M491 65q-8 -43 -8 -65q-60 2 -81 2l-120 -2q31 42 75.5 109t78.5 115q18 26 18 51q0 18 -15 33t-44 15q-31 0 -54 -18t-22 -45h-13q2 26 0 53q36 30 88 30q36 0 65.5 -18t29.5 -61q0 -26 -23 -59q-33 -46 -66.5 -99t-52.5 -81q38 -1 57 -1q33 0 46 2q16 3 23 15l9 24h9z M457 616l-399 -627h-29l400 627h28zM163 264q-38 1 -60 1l-54 -1v9q12 1 17 2q16 3 18 27q3 38 3 131v119q-16 -18 -41 -38l-11 11q15 10 41 39.5t33 40.5h16q-2 -26 -2 -172q0 -16 1 -70t1 -59q2 -26 19 -29l19 -2v-9z" />
<glyph unicode="&#xbe;" horiz-adv-x="539" d="M498 81h-41v-40q3 -26 20 -29l19 -2v-9q-39 2 -60 2l-51 -2v9q9 1 14 2q16 3 18 28q2 16 2 41h-133v16q86 127 155 242h16q-1 -63 -1 -169v-71l42 1v-19zM242 368q0 -12 -4.5 -26.5t-16 -32.5t-36 -30t-59.5 -12q-22 0 -48 5.5t-42 7.5q0 32 -8 64h9q5 -16 10 -23 q17 -35 79 -35q26 0 52 20.5t26 63.5q0 40 -29 59t-71 15q1 14 1 17q28 0 50 18t22 54q0 20 -12.5 40t-40.5 20q-27 0 -49 -19.5t-21 -44.5h-12v54q1 0 9 5t17 10t24.5 9.5t29.5 4.5q35 0 63 -18t28 -61q0 -24 -14 -42t-26.5 -24.5t-23.5 -9.5q38 0 65.5 -26t27.5 -63z M503 616l-400 -627h-29l400 627h29zM310 101q11 0 44.5 -1t45.5 -1h19q1 28 1 72v103q-16 -27 -62 -98.5t-48 -74.5z" />
<glyph unicode="&#xbf;" horiz-adv-x="360" d="M319 15q-58 -22 -109 -22q-73 0 -120 38t-47 112q0 31 12.5 57.5t32 48.5t40.5 44t40.5 54.5t29.5 71.5q4 29 5 50h18v-52q-1 -42 -20.5 -84.5t-42 -71.5t-41 -65.5t-18.5 -68.5q0 -40 27.5 -71.5t83.5 -31.5q28 0 56.5 11t34.5 27l5 35h13q-3 -57 0 -82zM250 574 q0 -16 -11.5 -27.5t-27.5 -11.5t-27 11.5t-11 27.5t10.5 27t27.5 11q16 0 27.5 -11t11.5 -27z" />
<glyph unicode="&#xc0;" horiz-adv-x="684" d="M661 0q-78 3 -98 3l-98 -3v13q18 1 26 3q7 2 11.5 9t1.5 16q-23 74 -74 206q-2 6 -10 6h-209q-7 0 -11 -8q-12 -29 -46 -114.5t-36 -91.5q-4 -18 7 -22l33 -4v-13q-63 3 -82 3l-83 -3v13q26 0 33 4q1 0 5 1t7.5 2.5t9 4.5t10.5 9.5t9 15.5q71 152 220 506q9 26 -3 31 q-6 3 -15.5 4.5t-16.5 1.5h-6v11q51 -3 61 -3l50 3q143 -388 205 -528q15 -36 27 -46q7 -6 17.5 -9t19.5 -4t35 -4v-13zM412 294q-41 118 -89 239q-85 -198 -102 -242q-3 -5 3 -5q87 -2 185 0q7 0 3 8zM409 616h-17q-122 61 -198 92v13q42 -4 103 0q18 -23 112 -105z" />
<glyph unicode="&#xc1;" horiz-adv-x="684" d="M661 0q-78 3 -98 3l-98 -3v13q18 1 26 3q7 2 11.5 9t1.5 16q-23 74 -74 206q-2 6 -10 6h-209q-7 0 -11 -8q-12 -29 -46 -114.5t-36 -91.5q-4 -18 7 -22l33 -4v-13q-63 3 -82 3l-83 -3v13q26 0 33 4q1 0 5 1t7.5 2.5t9 4.5t10.5 9.5t9 15.5q71 152 220 506q9 26 -3 31 q-6 3 -15.5 4.5t-16.5 1.5h-6v11q51 -3 61 -3q20 0 50 3q143 -388 205 -528q15 -36 27 -46q7 -6 17.5 -9t19.5 -4t35 -4v-13zM412 294q-41 118 -89 239q-85 -198 -102 -242q-3 -5 3 -5q87 -2 185 0q7 0 3 8zM455 709q-70 -28 -198 -92h-17q94 82 112 105q59 -4 103 0v-13z " />
<glyph unicode="&#xc2;" horiz-adv-x="684" d="M661 0q-78 3 -98 3l-98 -3v13q18 1 26 3q7 2 11.5 9t1.5 16q-23 74 -74 206q-2 6 -10 6h-209q-7 0 -11 -8q-12 -29 -46 -114.5t-36 -91.5q-4 -18 7 -22l33 -4v-13q-63 3 -82 3l-83 -3v13q26 0 33 4q1 0 5 1t7.5 2.5t9 4.5t10.5 9.5t9 15.5q71 152 220 506q9 26 -3 31 q-6 3 -15.5 4.5t-16.5 1.5h-6v11q51 -3 61 -3l50 3q143 -388 205 -528q15 -36 27 -46q7 -6 17.5 -9t19.5 -4t35 -4v-13zM412 294q-41 118 -89 239q-85 -198 -102 -242q-3 -5 3 -5q87 -2 185 0q7 0 3 8zM467 617h-71l-73 72l-74 -72h-28l123 123z" />
<glyph unicode="&#xc3;" horiz-adv-x="684" d="M661 0q-78 3 -98 3l-98 -3v13q18 1 26 3q7 2 11.5 9t1.5 16q-23 74 -74 206q-2 6 -10 6h-209q-7 0 -11 -8q-12 -29 -46 -114.5t-36 -91.5q-4 -18 7 -22l33 -4v-13q-63 3 -82 3l-83 -3v13q26 0 33 4q1 0 5 1t7.5 2.5t9 4.5t10.5 9.5t9 15.5q71 152 220 506q9 26 -3 31 q-6 3 -15.5 4.5t-16.5 1.5h-6v11q51 -3 61 -3q20 0 50 3q143 -388 205 -528q15 -36 27 -46q7 -6 17.5 -9t19.5 -4t35 -4v-13zM412 294q-41 118 -89 239q-85 -198 -102 -242q-3 -5 3 -5q11 0 35.5 -0.5t38.5 -0.5q19 0 56 0.5t55 0.5q7 0 3 8zM422 706v-15v-18t-1 -15.5 t-4 -16t-7 -11.5t-11 -9.5t-17 -2.5q-26 0 -73 21.5t-65 21.5q-16 0 -16 -43h-22v14v16.5t1 15.5t3.5 16.5t6.5 12.5t10.5 10t15.5 3q23 0 71.5 -21t69.5 -21q9 0 12 9t5 33h21z" />
<glyph unicode="&#xc4;" horiz-adv-x="684" d="M661 0q-78 3 -98 3l-98 -3v13q18 1 26 3q7 2 11.5 9t1.5 16q-23 74 -74 206q-2 6 -10 6h-209q-7 0 -11 -8q-12 -29 -46 -114.5t-36 -91.5q-4 -18 7 -22l33 -4v-13q-63 3 -82 3l-83 -3v13q26 0 33 4q1 0 5 1t7.5 2.5t9 4.5t10.5 9.5t9 15.5q71 152 220 506q9 26 -3 31 q-6 3 -15.5 4.5t-16.5 1.5h-6v11q51 -3 61 -3l50 3q143 -388 205 -528q15 -36 27 -46q7 -6 17.5 -9t19.5 -4t35 -4v-13zM412 294q-41 118 -89 239q-85 -198 -102 -242q-3 -5 3 -5q87 -2 185 0q7 0 3 8zM444 659q0 -16 -11.5 -27.5t-27.5 -11.5t-27 11.5t-11 27.5t11 27 t27 11t27.5 -11t11.5 -27zM291 659q0 -16 -11 -27.5t-27 -11.5t-27 11.5t-11 27.5t11 27t27 11t27 -11t11 -27z" />
<glyph unicode="&#xc5;" horiz-adv-x="684" d="M661 0q-78 3 -98 3l-98 -3v13q18 1 26 3q7 2 11.5 9t1.5 16q-23 74 -74 206q-2 6 -10 6h-209q-7 0 -11 -8q-12 -29 -46 -114.5t-36 -91.5q-4 -18 7 -22l33 -4v-13q-63 3 -82 3l-83 -3v13q26 0 33 4q1 0 5 1t7.5 2.5t9 4.5t10.5 9.5t9 15.5q71 152 220 506q9 26 -3 31 q-6 3 -15.5 4.5t-16.5 1.5h-6v11q51 -3 61 -3l50 3q143 -388 205 -528q15 -36 27 -46q7 -6 17.5 -9t19.5 -4t35 -4v-13zM412 294q-41 118 -89 239q-85 -198 -102 -242q-3 -5 3 -5q87 -2 185 0q7 0 3 8zM395 694q0 -30 -21.5 -52t-52.5 -22t-52.5 22t-21.5 52q0 31 21.5 52.5 t52.5 21.5t52.5 -21.5t21.5 -52.5zM367 694q0 19 -13.5 32t-32.5 13t-32.5 -13t-13.5 -32t13.5 -32.5t32.5 -13.5t32.5 13.5t13.5 32.5z" />
<glyph unicode="&#xc6;" horiz-adv-x="747" d="M734 113q-10 -64 -10 -113q-104 3 -125 3l-111 -3v13q18 1 26 3q7 2 11.5 9t1.5 16q-39 116 -75 206q-1 6 -10 6h-208q-7 0 -11 -8q-12 -29 -46 -114.5t-36 -91.5q-6 -18 6 -22l34 -4v-13q-64 3 -82 3l-83 -3v13q26 0 32 4q1 0 5 1t7.5 2.5t9 4.5t10.5 9.5t9 15.5 q81 173 221 506q9 26 -4 31q-5 3 -14.5 4.5t-16.5 1.5h-7v11q15 -1 98 -1q10 0 31.5 -0.5t32.5 -0.5l273 3q-4 -46 0 -103h-11q0 46 -14 59q-12 13 -143 13q-104 0 -124 -4q-5 0 -10.5 -4t-2.5 -11q6 -19 75 -200q7 -15 12 -15t52 -0.5t54 -0.5q59 0 66 15l5 27h11 q-2 -53 0 -120h-11q1 30 -10 37q-12 9 -59 9q-73 0 -85 -2q-15 -3 -12 -13q33 -90 87 -216q2 -3 5 -11t5 -11t5.5 -7.5t8.5 -6t13 -1.5t49 3q33 4 42 28q3 8 5.5 18.5t3.5 17.5v7h14zM435 294q-15 43 -89 239l-103 -242q-2 -5 4 -5q85 -2 184 0q7 0 4 8z" />
<glyph unicode="&#xc7;" horiz-adv-x="580" d="M572 134q-14 -76 -17 -112q-4 -1 -22.5 -7t-29.5 -8.5t-33 -6.5t-49.5 -6t-62.5 -2l-2 -37q18 3 25 3q29 0 50 -18t21 -43q0 -29 -26 -50.5t-61 -21.5q-36 0 -74 21l-2 25q33 -21 58 -21q30 0 44.5 14t14.5 33q0 17 -14 30t-42 13q-11 0 -25 -5l11 57q-39 2 -77.5 11.5 t-80 32.5t-73 56.5t-51.5 87.5t-20 122q0 135 99.5 223t234.5 88q48 0 111 -8t78 -14q-1 -13 -1 -48q0 -40 1 -53h-15q0 39 -17 56t-68.5 24.5t-88.5 7.5q-116 0 -194 -75.5t-78 -200.5q0 -121 78 -195.5t177 -74.5q63 0 104 8.5t52 15.5t24 20q8 8 14.5 22.5t8.5 25.5l3 10 h15z" />
<glyph unicode="&#xc8;" horiz-adv-x="482" d="M463 113q-10 -53 -10 -113q-114 3 -171 3l-214 -3v12q39 -4 52 15q9 14 9 61q0 1 0.5 49t1.5 104t1 78q0 200 -6 236q0 1 -0.5 6t-0.5 7t-1.5 6.5t-3.5 6.5t-6.5 4.5t-10.5 3.5l-26 4v12q91 -3 143 -3l213 3q-4 -46 0 -103h-12q1 46 -12 59t-99 13q-10 0 -58 -2.5 t-52 -3.5q-12 -3 -12 -14v-199q0 -15 12 -15q4 0 43.5 -0.5t47.5 -0.5q71 0 79 4q13 2 18 11l3 20h13q-3 -50 0 -113h-13q3 30 -9 37q-12 9 -88 9q-84 0 -94 -2q-12 -2 -12 -13q0 -131 5 -216q1 -17 8 -24.5t28 -9.5q28 -3 86 -3q38 0 83 3q34 5 43 28l9 43h13zM386 616h-17 q-128 64 -198 92v13q43 -4 103 0q18 -23 112 -105z" />
<glyph unicode="&#xc9;" horiz-adv-x="482" d="M463 113q-10 -53 -10 -113q-114 3 -171 3l-214 -3v12q39 -4 52 15q9 14 9 61q0 1 0.5 49t1.5 104t1 78q0 200 -6 236q0 1 -0.5 6t-0.5 7t-1.5 6.5t-3.5 6.5t-6.5 4.5t-10.5 3.5l-26 4v12q91 -3 143 -3l213 3q-4 -46 0 -103h-12q1 46 -12 59t-99 13q-10 0 -58 -2.5 t-52 -3.5q-12 -3 -12 -14v-199q0 -15 12 -15q4 0 43.5 -0.5t47.5 -0.5q71 0 79 4q13 2 18 11l3 20h13q-3 -50 0 -113h-13q3 30 -9 37q-12 9 -88 9q-84 0 -94 -2q-12 -2 -12 -13q0 -131 5 -216q1 -17 8 -24.5t28 -9.5q28 -3 86 -3q38 0 83 3q34 5 43 28l9 43h13zM399 709 q-76 -31 -198 -92h-16q99 89 112 105q61 -4 102 0v-13z" />
<glyph unicode="&#xca;" horiz-adv-x="482" d="M463 113q-10 -53 -10 -113q-114 3 -171 3l-214 -3v12q39 -4 52 15q9 14 9 61q0 1 0.5 49t1.5 104t1 78q0 200 -6 236q0 1 -0.5 6t-0.5 7t-1.5 6.5t-3.5 6.5t-6.5 4.5t-10.5 3.5l-26 4v12q91 -3 143 -3l213 3q-4 -46 0 -103h-12q1 46 -12 59t-99 13q-10 0 -58 -2.5 t-52 -3.5q-12 -3 -12 -14v-199q0 -15 12 -15q4 0 43.5 -0.5t47.5 -0.5q71 0 79 4q13 2 18 11l3 20h13q-3 -50 0 -113h-13q3 30 -9 37q-12 9 -88 9q-84 0 -94 -2q-12 -2 -12 -13q0 -131 5 -216q1 -17 8 -24.5t28 -9.5q28 -3 86 -3q38 0 83 3q34 5 43 28l9 43h13zM399 617h-71 l-73 72l-74 -72h-28l123 123z" />
<glyph unicode="&#xcb;" horiz-adv-x="482" d="M463 113q-10 -53 -10 -113q-114 3 -171 3l-214 -3v12q39 -4 52 15q9 14 9 61q0 1 0.5 49t1.5 104t1 78q0 200 -6 236q0 1 -0.5 6t-0.5 7t-1.5 6.5t-3.5 6.5t-6.5 4.5t-10.5 3.5l-26 4v12q91 -3 143 -3l213 3q-2 -26 -2 -50q0 -21 2 -53h-12q1 46 -12 59t-99 13 q-10 0 -58 -2.5t-52 -3.5q-12 -3 -12 -14v-199q0 -15 12 -15q4 0 43.5 -0.5t47.5 -0.5q71 0 79 4q13 2 18 11l3 20h13q-2 -28 -2 -53q0 -24 2 -60h-13q3 30 -9 37q-12 9 -88 9q-84 0 -94 -2q-12 -2 -12 -13q0 -131 5 -216q1 -17 8 -24.5t28 -9.5q28 -3 86 -3q38 0 83 3 q34 5 43 28l9 43h13zM383 659q0 -16 -11 -27.5t-27 -11.5t-27.5 11.5t-11.5 27.5t11.5 27t27.5 11t27 -11t11 -27zM231 659q0 -16 -11 -27.5t-27 -11.5t-27.5 11.5t-11.5 27.5t11.5 27t27.5 11t27 -11t11 -27z" />
<glyph unicode="&#xcc;" horiz-adv-x="307" d="M255 616h-17q-113 58 -197 92v13q30 -2 46 -2q22 0 56 2q13 -16 112 -105zM262 0q-63 3 -103 3l-91 -3v13q16 1 27 4q26 3 30 49q5 54 5 237q0 243 -1 251q-3 28 -20 33l-33 6v11q64 -3 83 -3l82 3v-12q-18 -1 -30 -5q-19 -5 -22 -31v-57.5v-116.5v-80q0 -133 4 -233 q2 -45 33 -52q10 -3 19 -4t13 -1l4 1v-13z" />
<glyph unicode="&#xcd;" horiz-adv-x="307" d="M289 709q-60 -24 -199 -92h-16q98 88 111 105q36 -2 57 -2q15 0 47 2v-13zM262 0q-63 3 -103 3l-91 -3v13q16 1 27 4q26 3 30 49q5 54 5 237q0 243 -1 251q-3 28 -20 33l-33 6v11q64 -3 83 -3l82 3v-12q-18 -1 -30 -5q-19 -5 -22 -31v-57.5v-116.5v-80q0 -133 4 -233 q2 -45 33 -52q10 -3 19 -4t13 -1l4 1v-13z" />
<glyph unicode="&#xce;" horiz-adv-x="307" d="M291 617h-71l-73 72l-74 -72h-28l123 123zM262 0q-63 3 -103 3l-91 -3v13q16 1 27 4q26 3 30 49q5 54 5 237q0 243 -1 251q-3 28 -20 33l-33 6v11q64 -3 83 -3l82 3v-12q-18 -1 -30 -5q-19 -5 -22 -31v-57.5v-116.5v-80q0 -133 4 -233q2 -45 33 -52q10 -3 19 -4t13 -1 l4 1v-13z" />
<glyph unicode="&#xcf;" horiz-adv-x="307" d="M263 659q0 -16 -11.5 -27.5t-27.5 -11.5t-27.5 11.5t-11.5 27.5t11.5 27t27.5 11t27.5 -11t11.5 -27zM132 659q0 -16 -10.5 -27.5t-26.5 -11.5t-27.5 11.5t-11.5 27.5t11.5 27t27.5 11t26.5 -11t10.5 -27zM262 0q-63 3 -103 3l-91 -3v13q16 1 27 4q26 3 30 49q5 54 5 237 q0 243 -1 251q-3 28 -20 33l-33 6v11q64 -3 83 -3l82 3v-12q-18 -1 -30 -5q-19 -5 -22 -31v-57.5v-116.5v-80q0 -133 4 -233q2 -45 33 -52q10 -3 19 -4t13 -1l4 1v-13z" />
<glyph unicode="&#xd0;" horiz-adv-x="692" d="M665 304q0 -133 -94 -220.5t-226 -87.5q-54 0 -102 3.5t-56 3.5l-126 -3v13q32 0 43 9q9 6 16 57q2 22 2 212h-100v45h100q-1 65 -1 197q0 37 -5 44q-6 6 -20 10t-24 5l-11 1v12q74 -4 124 -4q20 0 82 3.5t111 3.5q22 0 51 -5t72.5 -24.5t78 -50t60 -89t25.5 -135.5z M431 291h-252q4 -192 8 -226q3 -22 24 -26q36 -9 134 -9q30 0 63 8.5t68.5 29t63.5 50.5t46 78t18 106q0 56 -15.5 101.5t-41 73.5t-54 49t-58 30.5t-49 14t-31.5 4.5q-57 0 -161 -8q-4 0 -6.5 -2.5t-3 -4.5t-1.5 -6.5t-1 -5.5q-3 -12 -3 -212h252v-45z" />
<glyph unicode="&#xd1;" horiz-adv-x="735" d="M682 592q-13 -1 -20 -4q-23 -6 -24 -36q-5 -63 -5 -250l3 -323q-247 300 -466 545q-1 -157 -1 -222q0 -193 4 -241q5 -38 22 -43l28 -6v-12q-54 3 -76 3l-76 -3v12q13 0 26 4q8 2 12.5 5t9.5 12.5t6 26.5q2 72 2 243q0 216 -2 246q0 27 -20 36l-37 7v13q47 -3 64 -3l49 3 q228 -277 412 -480q-1 162 -1 177q0 198 -5 250q-3 29 -16 33l-27 7v13q49 -3 68 -3l70 3v-13zM488 699v-23q0 -64 -42 -64q-26 0 -72.5 21t-64.5 21q-16 0 -16 -42h-22q0 3 -0.5 11.5t-0.5 13.5q0 64 38 64q22 0 71 -21t71 -21q15 0 16 40h22z" />
<glyph unicode="&#xd2;" horiz-adv-x="685" d="M450 625h-17q-135 67 -198 92v12q7 0 23 -0.5t24 -0.5q10 0 28.5 0.5t26.5 0.5q20 -22 113 -104zM654 302q0 -72 -27.5 -133t-72.5 -99.5t-100.5 -60t-112.5 -21.5q-131 0 -220.5 81t-89.5 233q0 99 49.5 172.5t119 107t142.5 33.5q142 0 227 -87t85 -226zM596 302 q0 114 -75.5 198.5t-178.5 84.5q-112 0 -183 -76.5t-71 -205.5q0 -116 75 -198t178 -82q104 0 179.5 72t75.5 207z" />
<glyph unicode="&#xd3;" horiz-adv-x="685" d="M520 717q-50 -19 -199 -92h-16q100 90 112 104q68 -2 103 0v-12zM654 302q0 -72 -27.5 -133t-72.5 -99.5t-100.5 -60t-112.5 -21.5q-131 0 -220.5 81t-89.5 233q0 99 49.5 172.5t119 107t142.5 33.5q142 0 227 -87t85 -226zM596 302q0 114 -75.5 198.5t-178.5 84.5 q-112 0 -183 -76.5t-71 -205.5q0 -116 75 -198t178 -82q104 0 179.5 72t75.5 207z" />
<glyph unicode="&#xd4;" horiz-adv-x="685" d="M488 623h-72l-72 72l-75 -72h-27l123 123zM654 302q0 -72 -27.5 -133t-72.5 -99.5t-100.5 -60t-112.5 -21.5q-131 0 -220.5 81t-89.5 233q0 99 49.5 172.5t119 107t142.5 33.5q142 0 227 -87t85 -226zM596 302q0 114 -75.5 198.5t-178.5 84.5q-112 0 -183 -76.5 t-71 -205.5q0 -116 75 -198t178 -82q104 0 179.5 72t75.5 207z" />
<glyph unicode="&#xd5;" horiz-adv-x="685" d="M472 711v-13v-14.5t-0.5 -14t-2 -14.5t-4.5 -12t-7.5 -10.5t-11 -6t-15.5 -2.5q-26 0 -73 21.5t-65 21.5q-16 0 -16 -43h-22q0 3 -0.5 14t0 17t1 16.5t3 16.5t6.5 12.5t11 9.5t16 3q22 0 71 -21.5t71 -21.5q14 0 16 41h22zM654 302q0 -72 -27.5 -133t-72.5 -99.5 t-100.5 -60t-112.5 -21.5q-131 0 -220.5 81t-89.5 233q0 99 49.5 172.5t119 107t142.5 33.5q142 0 227 -87t85 -226zM596 302q0 114 -75.5 198.5t-178.5 84.5q-112 0 -183 -76.5t-71 -205.5q0 -116 75 -198t178 -82q104 0 179.5 72t75.5 207z" />
<glyph unicode="&#xd6;" horiz-adv-x="692" d="M464 666q0 -16 -11.5 -27.5t-27.5 -11.5t-27 11.5t-11 27.5t11 27.5t27 11.5t27.5 -11.5t11.5 -27.5zM311 666q0 -16 -11 -27.5t-27 -11.5t-27.5 11.5t-11.5 27.5t11.5 27.5t27.5 11.5t27 -11.5t11 -27.5zM657 302q0 -95 -47.5 -169t-117.5 -109.5t-147 -35.5 q-63 0 -118 19.5t-98.5 57t-69 99t-25.5 138.5q0 75 29 136.5t75 99t100 57.5t108 20q141 0 226 -87t85 -226zM600 302q0 114 -75.5 198.5t-178.5 84.5q-112 0 -183 -76.5t-71 -205.5q0 -116 75 -198t178 -82q104 0 179.5 72t75.5 207z" />
<glyph unicode="&#xd7;" horiz-adv-x="480" d="M410 39l-32 -32l-143 144l-144 -143l-33 31l145 144l-144 144l32 32l144 -144l143 144l32 -32l-143 -144z" />
<glyph unicode="&#xd8;" horiz-adv-x="707" d="M658 578l-66 -63q73 -85 73 -213q0 -72 -27.5 -133t-72.5 -99.5t-100.5 -60t-112.5 -21.5q-135 0 -221 82l-63 -62l-36 8l78 76q-68 81 -68 210q0 75 29 136.5t75 99t100 57.5t107 20q133 0 218 -79l52 49zM608 302q0 95 -57 173l-380 -367q74 -85 181 -85q104 0 180 72 t76 207zM100 303q0 -97 52 -171l381 367q-76 86 -180 86q-111 0 -182 -76.5t-71 -205.5z" />
<glyph unicode="&#xd9;" horiz-adv-x="723" d="M675 0q-54 3 -73 3l-61 -3q3 76 3 89q-42 -51 -83 -74q-51 -28 -113 -28q-100 0 -171.5 51.5t-71.5 149.5v115q0 197 -2 237q0 1 -0.5 10t-0.5 11.5t-1.5 9t-4 9t-7 5.5t-10.5 4l-26 4v12q52 -3 75 -3l87 3v-12q-15 -2 -24 -3h-3l-3 -1.5t-3.5 -1.5t-4 -2t-3.5 -3.5 t-3 -5t-2.5 -6.5t-2.5 -9.5t-1 -11.5q-1 -19 -1 -246q0 -34 0.5 -63t0.5 -34q0 -88 54 -130.5t128 -42.5q92 0 145 47.5t53 132.5v88q0 201 -4 243q0 14 -0.5 20t-5.5 13t-15 9l-27 7v12q45 -3 79 -3l82 3v-12q-15 -2 -24 -5q-1 0 -4.5 -1t-5 -2t-5 -3t-5 -5t-4 -7.5 t-3.5 -11t-1 -15.5q-1 -42 -1 -243q0 -135 4 -227v-9q0 -10 0.5 -12t2 -9.5t4 -10t7 -7.5t11.5 -7.5t16 -3.5l29 -2v-12zM469 616h-17q-128 64 -198 92v13q44 -4 103 0q18 -23 112 -105z" />
<glyph unicode="&#xda;" horiz-adv-x="723" d="M675 0q-54 3 -73 3l-61 -3q3 76 3 89q-42 -51 -83 -74q-51 -28 -113 -28q-100 0 -171.5 51.5t-71.5 149.5v115q0 197 -2 237q0 1 -0.5 10t-0.5 11.5t-1.5 9t-4 9t-7 5.5t-10.5 4l-26 4v12q52 -3 75 -3l87 3v-12q-15 -2 -24 -3h-3l-3 -1.5t-3.5 -1.5t-4 -2t-3.5 -3.5 t-3 -5t-2.5 -6.5t-2.5 -9.5t-1 -11.5q-1 -19 -1 -246q0 -34 0.5 -63t0.5 -34q0 -88 54 -130.5t128 -42.5q92 0 145 47.5t53 132.5v88q0 201 -4 243q0 14 -0.5 20t-5.5 13t-15 9l-27 7v12q45 -3 79 -3l82 3v-12q-15 -2 -24 -5q-1 0 -4.5 -1t-5 -2t-5 -3t-5 -5t-4 -7.5 t-3.5 -11t-1 -15.5q-1 -42 -1 -243q0 -135 4 -227v-9q0 -10 0.5 -12t2 -9.5t4 -10t7 -7.5t11.5 -7.5t16 -3.5l29 -2v-12zM501 709q-70 -28 -198 -92h-17q94 82 112 105q34 -2 56 -2q17 0 47 2v-13z" />
<glyph unicode="&#xdb;" horiz-adv-x="723" d="M675 0q-54 3 -73 3l-61 -3q3 76 3 89q-42 -51 -83 -74q-51 -28 -113 -28q-100 0 -171.5 51.5t-71.5 149.5v115q0 197 -2 237q0 1 -0.5 10t-0.5 11.5t-1.5 9t-4 9t-7 5.5t-10.5 4l-26 4v12q52 -3 75 -3l87 3v-12q-15 -2 -24 -3h-3l-3 -1.5t-3.5 -1.5t-4 -2t-3.5 -3.5 t-3 -5t-2.5 -6.5t-2.5 -9.5t-1 -11.5q-1 -19 -1 -246q0 -34 0.5 -63t0.5 -34q0 -88 54 -130.5t128 -42.5q92 0 145 47.5t53 132.5v88q0 201 -4 243q0 14 -0.5 20t-5.5 13t-15 9l-27 7v12q45 -3 79 -3l82 3v-12q-15 -2 -24 -5q-1 0 -4.5 -1t-5 -2t-5 -3t-5 -5t-4 -7.5 t-3.5 -11t-1 -15.5q-1 -42 -1 -243q0 -135 4 -227v-9q0 -10 0.5 -12t2 -9.5t4 -10t7 -7.5t11.5 -7.5t16 -3.5l29 -2v-12zM488 617h-73l-72 72l-75 -72h-27l123 123z" />
<glyph unicode="&#xdc;" horiz-adv-x="723" d="M675 0q-54 3 -73 3l-61 -3q3 76 3 89q-42 -51 -83 -74q-51 -28 -113 -28q-100 0 -171.5 51.5t-71.5 149.5v115q0 197 -2 237q0 1 -0.5 10t-0.5 11.5t-1.5 9t-4 9t-7 5.5t-10.5 4l-26 4v12q52 -3 75 -3l87 3v-12q-15 -2 -24 -3h-3l-3 -1.5t-3.5 -1.5t-4 -2t-3.5 -3.5 t-3 -5t-2.5 -6.5t-2.5 -9.5t-1 -11.5q-1 -19 -1 -246q0 -34 0.5 -63t0.5 -34q0 -88 54 -130.5t128 -42.5q92 0 145 47.5t53 132.5v88q0 201 -4 243q0 14 -0.5 20t-5.5 13t-15 9l-27 7v12q45 -3 79 -3l82 3v-12q-15 -2 -24 -5q-1 0 -4.5 -1t-5 -2t-5 -3t-5 -5t-4 -7.5 t-3.5 -11t-1 -15.5q-1 -42 -1 -243q0 -135 4 -227v-9q0 -10 0.5 -12t2 -9.5t4 -10t7 -7.5t11.5 -7.5t16 -3.5l29 -2v-12zM478 659q0 -16 -11.5 -27.5t-27.5 -11.5t-27.5 11.5t-11.5 27.5t11.5 27t27.5 11t27.5 -11t11.5 -27zM325 659q0 -16 -11.5 -27.5t-27.5 -11.5 t-27.5 11.5t-11.5 27.5t11.5 27t27.5 11t27.5 -11t11.5 -27z" />
<glyph unicode="&#xdd;" horiz-adv-x="607" d="M463 705q-90 -37 -198 -93h-17q94 82 112 105q36 -2 56 -2q17 0 47 2v-12zM599 591q-48 -6 -84 -25q-64 -36 -118 -123t-59 -160q-4 -73 1 -212q2 -45 29 -53l38 -6v-12q-58 3 -93 3l-100 -3v12q15 1 28 5q9 2 13.5 4t10.5 14.5t7 35.5q4 183 -1 210q-10 61 -64.5 151 t-113.5 132q-29 19 -85 22v12q34 11 81 11q54 0 103 -51q31 -33 73 -111.5t46 -114.5q8 44 44.5 118.5t82.5 114.5q50 44 111 44q10 0 22.5 -2t20.5 -4l7 -2v-10z" />
<glyph unicode="&#xde;" horiz-adv-x="458" d="M442 290q0 -73 -53 -120t-130 -47l-34 1v12q33 -2 65 8t64 46t32 90q0 56 -41 91.5t-86 35.5q-52 0 -62 -2q-13 -1 -13 -17q0 -4 1 -49t1.5 -105.5t0.5 -102.5q0 -145 4 -237q2 -48 36 -53l32 -3v-12q-52 3 -102 3l-96 -3v12q18 2 32 5q24 4 28 50t4 173q0 21 -1.5 118 t-1.5 119q0 243 -1 251q-2 27 -20 33l-33 6v11q64 -3 84 -3l81 3v-12q-18 -1 -29 -5q-19 -5 -22 -31v-126q65 5 112 5q54 0 101 -39t47 -106z" />
<glyph unicode="&#xdf;" horiz-adv-x="417" d="M215 581q44 0 78.5 -28.5t34.5 -66.5q0 -43 -17 -68t-37 -32.5t-37 -22t-17 -37.5q0 -15 18.5 -31.5t45 -33.5t52.5 -36.5t44.5 -49.5t18.5 -65q0 -118 -132 -118q-76 0 -117 46l22 28q42 -51 95 -51q52 0 73.5 23.5t21.5 48.5q0 24 -28.5 52t-62 50.5t-62 58.5t-28.5 74 q0 27 11.5 45.5t27.5 28.5t32 19t27.5 23t11.5 34q0 26 -31 56t-66 30q-36 0 -48.5 -23.5t-12.5 -65.5q0 -13 2 -43t2 -48v-310l-8 -68h-99v17l45 7v315h-52v31l52 8v4q0 90 33.5 144.5t106.5 54.5z" />
<glyph unicode="&#xe0;" horiz-adv-x="338" d="M168 366q-37 3 -54.5 -19.5t-17.5 -55.5l-35 -17q-5 13 -5 24q0 40 41.5 66t72.5 26q33 0 63 -27.5t30 -56.5v-209q0 -30 7.5 -47.5t18.5 -17.5l37 4l10 -15q-12 -11 -34 -20.5t-37 -9.5q-17 0 -34.5 17.5t-24.5 42.5q-47 -60 -92 -60q-44 0 -64.5 27.5t-20.5 54.5 q0 53 55 85t118 35v113q0 57 -34 60zM131 38q38 0 71 36v100q-50 -2 -82.5 -25.5t-32.5 -61.5q0 -22 14.5 -35.5t29.5 -13.5zM277 508h-17q-98 51 -198 93v11q36 -2 102 0q20 -22 113 -104z" />
<glyph unicode="&#xe1;" horiz-adv-x="338" d="M168 366q-37 3 -54.5 -19.5t-17.5 -55.5l-35 -17q-5 13 -5 24q0 40 41.5 66t72.5 26q33 0 63 -27.5t30 -56.5v-209q0 -30 7.5 -47.5t18.5 -17.5l37 4l10 -15q-12 -11 -34 -20.5t-37 -9.5q-17 0 -34.5 17.5t-24.5 42.5q-47 -60 -92 -60q-44 0 -64.5 27.5t-20.5 54.5 q0 53 55 85t118 35v113q0 57 -34 60zM131 38q38 0 71 36v100q-50 -2 -82.5 -25.5t-32.5 -61.5q0 -22 14.5 -35.5t29.5 -13.5zM300 601q-105 -44 -199 -93h-17q93 82 112 104q68 -2 104 0v-11z" />
<glyph unicode="&#xe2;" horiz-adv-x="338" d="M168 366q-37 3 -54.5 -19.5t-17.5 -55.5l-35 -17q-5 13 -5 24q0 40 41.5 66t72.5 26q33 0 63 -27.5t30 -56.5v-209q0 -30 7.5 -47.5t18.5 -17.5l37 4l10 -15q-12 -11 -34 -20.5t-37 -9.5q-17 0 -34.5 17.5t-24.5 42.5q-47 -60 -92 -60q-44 0 -64.5 27.5t-20.5 54.5 q0 53 55 85t118 35v113q0 57 -34 60zM131 38q38 0 71 36v100q-50 -2 -82.5 -25.5t-32.5 -61.5q0 -22 14.5 -35.5t29.5 -13.5zM300 522h-72l-72 71l-74 -71h-29l124 123z" />
<glyph unicode="&#xe3;" horiz-adv-x="338" d="M168 366q-37 3 -54.5 -19.5t-17.5 -55.5l-35 -17q-5 13 -5 24q0 40 41.5 66t72.5 26q33 0 63 -27.5t30 -56.5v-209q0 -30 7.5 -47.5t18.5 -17.5l37 4l10 -15q-12 -11 -34 -20.5t-37 -9.5q-17 0 -34.5 17.5t-24.5 42.5q-47 -60 -92 -60q-44 0 -64.5 27.5t-20.5 54.5 q0 53 55 85t118 35v113q0 57 -34 60zM131 38q38 0 71 36v100q-50 -2 -82.5 -25.5t-32.5 -61.5q0 -22 14.5 -35.5t29.5 -13.5zM277 618v-14.5v-17.5t-1 -15.5t-4 -15.5t-7.5 -11t-11.5 -9.5t-17 -2.5q-26 0 -73 21t-65 21q-16 0 -16 -42h-22v13v17t1 16t3.5 16.5t6.5 12.5 t10.5 10t15.5 3q23 0 72 -21t70 -21q16 0 16 40h22z" />
<glyph unicode="&#xe4;" horiz-adv-x="338" d="M168 366q-37 3 -54.5 -19.5t-17.5 -55.5l-35 -17q-5 13 -5 24q0 40 41.5 66t72.5 26q33 0 63 -27.5t30 -56.5v-209q0 -30 7.5 -47.5t18.5 -17.5l37 4l10 -15q-12 -11 -34 -20.5t-37 -9.5q-17 0 -34.5 17.5t-24.5 42.5q-47 -60 -92 -60q-44 0 -64.5 27.5t-20.5 54.5 q0 53 55 85t118 35v113q0 57 -34 60zM131 38q38 0 71 36v100q-50 -2 -82.5 -25.5t-32.5 -61.5q0 -22 14.5 -35.5t29.5 -13.5zM284 574q0 -16 -11.5 -27.5t-27.5 -11.5t-27 11.5t-11 27.5t11 27t27 11t27.5 -11t11.5 -27zM131 574q0 -16 -11.5 -27.5t-27.5 -11.5t-27 11.5 t-11 27.5t11 27t27 11t27.5 -11t11.5 -27z" />
<glyph unicode="&#xe5;" horiz-adv-x="338" d="M168 366q-37 3 -54.5 -19.5t-17.5 -55.5l-35 -17q-5 13 -5 24q0 40 41.5 66t72.5 26q33 0 63 -27.5t30 -56.5v-209q0 -30 7.5 -47.5t18.5 -17.5l37 4l10 -15q-12 -11 -34 -20.5t-37 -9.5q-17 0 -34.5 17.5t-24.5 42.5q-47 -60 -92 -60q-44 0 -64.5 27.5t-20.5 54.5 q0 53 55 85t118 35v113q0 57 -34 60zM131 38q38 0 71 36v100q-50 -2 -82.5 -25.5t-32.5 -61.5q0 -22 14.5 -35.5t29.5 -13.5zM243 591q0 -31 -21.5 -52.5t-52.5 -21.5t-52.5 21.5t-21.5 52.5t21.5 52.5t52.5 21.5t52.5 -21.5t21.5 -52.5zM215 591q0 19 -13.5 32.5 t-32.5 13.5t-32.5 -13.5t-13.5 -32.5t13.5 -32.5t32.5 -13.5t32.5 13.5t13.5 32.5z" />
<glyph unicode="&#xe6;" horiz-adv-x="526" d="M503 230q-19 1 -240 1q0 -31 4 -55q8 -75 52 -120t101 -36q33 6 61 24l10 -15q-34 -31 -88 -37q-107 -10 -162 68q-62 -69 -127 -69q-44 0 -64.5 27.5t-20.5 54.5q0 53 55 85t118 35v113q0 57 -34 60q-37 3 -54.5 -19.5t-17.5 -55.5l-35 -17q-5 13 -5 24q0 40 41.5 66 t72.5 26q25 0 48.5 -16.5t35.5 -40.5q49 56 116 56q37 0 65 -18.5t42 -45.5t20 -51.5t6 -43.5zM354 368q-73 -10 -86 -98h168q0 43 -22.5 73t-59.5 25zM131 38q38 0 71 36v100q-50 -2 -82.5 -25.5t-32.5 -61.5q0 -22 14.5 -35.5t29.5 -13.5z" />
<glyph unicode="&#xe7;" horiz-adv-x="332" d="M309 -111q0 -29 -26 -50.5t-61 -21.5q-36 0 -75 21l-2 25q34 -21 59 -21q30 0 44.5 14t14.5 33q0 17 -14 30t-42 13q-12 0 -26 -5l12 65q-75 6 -118 63t-43 135q0 82 49 140.5t119 58.5q45 0 79.5 -22.5t34.5 -69.5q0 -11 -6 -25l-35 17q0 35 -21 59t-68 20 q-55 -5 -76.5 -58.5t-12.5 -133.5q10 -75 53.5 -120t99.5 -36q34 6 62 24l10 -15q-34 -32 -89 -37q-3 0 -8.5 -0.5t-7.5 -0.5l-2 -44q16 3 25 3q29 0 50 -18t21 -43z" />
<glyph unicode="&#xe8;" horiz-adv-x="351" d="M331 230q-19 1 -238 1q-1 -9 2 -55q10 -75 53.5 -120t99.5 -36q34 6 62 24l10 -15q-34 -32 -89 -37q-92 -9 -145.5 50.5t-53.5 147.5q0 82 49 140.5t119 58.5q37 0 64.5 -18t41 -45.5t19.5 -52t6 -43.5zM184 368q-73 -10 -88 -98h169q0 43 -22 73t-59 25zM298 508h-17 q-98 51 -198 93v11q36 -2 102 0q20 -22 113 -104z" />
<glyph unicode="&#xe9;" horiz-adv-x="351" d="M331 230q-19 1 -238 1q-1 -9 2 -55q10 -75 53.5 -120t99.5 -36q34 6 62 24l10 -15q-34 -32 -89 -37q-92 -9 -145.5 50.5t-53.5 147.5q0 82 49 140.5t119 58.5q37 0 64.5 -18t41 -45.5t19.5 -52t6 -43.5zM184 368q-73 -10 -88 -98h169q0 43 -22 73t-59 25zM344 601 q-105 -44 -199 -93h-17q93 82 112 104q68 -2 104 0v-11z" />
<glyph unicode="&#xea;" horiz-adv-x="351" d="M331 230q-19 1 -238 1q-1 -9 2 -55q10 -75 53.5 -120t99.5 -36q34 6 62 24l10 -15q-34 -32 -89 -37q-92 -9 -145.5 50.5t-53.5 147.5q0 82 49 140.5t119 58.5q37 0 64.5 -18t41 -45.5t19.5 -52t6 -43.5zM184 368q-73 -10 -88 -98h169q0 43 -22 73t-59 25zM330 522h-72 l-72 71l-74 -71h-29l124 123z" />
<glyph unicode="&#xeb;" horiz-adv-x="351" d="M331 230q-19 1 -238 1q-1 -9 2 -55q10 -75 53.5 -120t99.5 -36q34 6 62 24l10 -15q-34 -32 -89 -37q-92 -9 -145.5 50.5t-53.5 147.5q0 82 49 140.5t119 58.5q37 0 64.5 -18t41 -45.5t19.5 -52t6 -43.5zM184 368q-73 -10 -88 -98h169q0 43 -22 73t-59 25zM322 574 q0 -16 -11.5 -27.5t-27.5 -11.5t-27 11.5t-11 27.5t11 27t27 11t27.5 -11t11.5 -27zM169 574q0 -16 -11.5 -27.5t-27.5 -11.5t-27 11.5t-11 27.5t11 27t27 11t27.5 -11t11.5 -27z" />
<glyph unicode="&#xec;" horiz-adv-x="214" d="M65 348l-35 -4v16q14 0 91 22h17v-358l46 -7v-17h-152v17l45 7v300q0 24 -12 24zM215 508h-17q-98 51 -198 93v11q36 -2 102 0q20 -22 113 -104z" />
<glyph unicode="&#xed;" horiz-adv-x="214" d="M65 348l-35 -4v16q14 0 91 22h17v-358l46 -7v-17h-152v17l45 7v300q0 24 -12 24zM215 601q-105 -44 -199 -93h-17q93 82 112 104q68 -2 104 0v-11z" />
<glyph unicode="&#xee;" horiz-adv-x="214" d="M65 348l-35 -4v16q14 0 91 22h17v-358l46 -7v-17h-152v17l45 7v300q0 24 -12 24zM230 522h-72l-72 71l-74 -71h-29l124 123z" />
<glyph unicode="&#xef;" horiz-adv-x="214" d="M65 348l-35 -4v16q14 0 91 22h17v-358l46 -7v-17h-152v17l45 7v300q0 24 -12 24zM222 574q0 -16 -11.5 -27.5t-27.5 -11.5t-27 11.5t-11 27.5t11 27t27 11t27.5 -11t11.5 -27zM69 574q0 -16 -11.5 -27.5t-27.5 -11.5t-27 11.5t-11 27.5t11 27t27 11t27.5 -11t11.5 -27z " />
<glyph unicode="&#xf0;" horiz-adv-x="329" d="M290 504l-54 -54q60 -67 60 -210v-29q0 -97 -33.5 -158t-107.5 -61q-65 0 -99.5 52.5t-34.5 126.5q0 72 33 119t100 47q31 0 56 -17.5t32 -45.5v17q0 96 -28 137l-54 -54l-29 28l53 53q-22 10 -44 10q-34 0 -59 -23.5t-27 -65.5l-12 1q0 7 1.5 23t2 30t0.5 23v6 q42 36 91 36q36 0 68 -19l56 57zM240 214q0 27 -23 61t-62 34q-29 0 -47 -12.5t-25 -37t-9 -43.5t-2 -49q0 -37 5.5 -67.5t25 -55.5t50.5 -25q29 0 47.5 13.5t26.5 43t10.5 59.5t2.5 79z" />
<glyph unicode="&#xf1;" horiz-adv-x="464" d="M77 66v258q0 24 -12 24l-35 -4v16q14 0 91 22h17l-4 -59q20 16 53.5 32.5t56.5 25.5l24 9q57 0 87.5 -32.5t30.5 -66.5v-225q0 -40 45 -49v-17h-153v17q23 2 35 13t12 36v225q0 24 -17.5 42.5t-54.5 18.5q-17 0 -50.5 -15.5t-64.5 -39.5v-231q0 -39 46 -49v-17h-152v17 q23 2 34 13t11 36zM340 618v-14.5v-17.5t-1 -15.5t-4 -15.5t-7.5 -11t-11.5 -9.5t-17 -2.5q-26 0 -73 21t-65 21q-16 0 -16 -42h-22v13v17t1 16t3.5 16.5t6.5 12.5t10.5 10t15.5 3q23 0 72 -21t70 -21q16 0 16 40h22z" />
<glyph unicode="&#xf2;" horiz-adv-x="419" d="M24 190q0 82 54.5 140.5t131.5 58.5q81 0 133.5 -58t52.5 -141q0 -82 -54.5 -140t-131.5 -58t-131.5 58t-54.5 140zM90 176q10 -78 46.5 -124t96.5 -39q59 7 84 61t15 132t-46.5 124.5t-96.5 38.5q-59 -7 -83.5 -60.5t-15.5 -132.5zM325 508h-17q-98 51 -198 93v11 q36 -2 102 0q20 -22 113 -104z" />
<glyph unicode="&#xf3;" horiz-adv-x="419" d="M24 190q0 82 54.5 140.5t131.5 58.5q81 0 133.5 -58t52.5 -141q0 -82 -54.5 -140t-131.5 -58t-131.5 58t-54.5 140zM90 176q10 -78 46.5 -124t96.5 -39q59 7 84 61t15 132t-46.5 124.5t-96.5 38.5q-59 -7 -83.5 -60.5t-15.5 -132.5zM332 601q-105 -44 -199 -93h-17 q93 82 112 104q68 -2 104 0v-11z" />
<glyph unicode="&#xf4;" horiz-adv-x="419" d="M24 190q0 82 54.5 140.5t131.5 58.5q81 0 133.5 -58t52.5 -141q0 -82 -54.5 -140t-131.5 -58t-131.5 58t-54.5 140zM90 176q10 -78 46.5 -124t96.5 -39q59 7 84 61t15 132t-46.5 124.5t-96.5 38.5q-59 -7 -83.5 -60.5t-15.5 -132.5zM346 522h-72l-72 71l-74 -71h-29 l124 123z" />
<glyph unicode="&#xf5;" horiz-adv-x="419" d="M24 190q0 82 54.5 140.5t131.5 58.5q81 0 133.5 -58t52.5 -141q0 -82 -54.5 -140t-131.5 -58t-131.5 58t-54.5 140zM90 176q10 -78 46.5 -124t96.5 -39q59 7 84 61t15 132t-46.5 124.5t-96.5 38.5q-59 -7 -83.5 -60.5t-15.5 -132.5zM325 618v-14.5v-17.5t-1 -15.5 t-4 -15.5t-7.5 -11t-11.5 -9.5t-17 -2.5q-26 0 -73 21t-65 21q-16 0 -16 -42h-22v13v17t1 16t3.5 16.5t6.5 12.5t10.5 10t15.5 3q23 0 72 -21t70 -21q16 0 16 40h22z" />
<glyph unicode="&#xf6;" horiz-adv-x="419" d="M24 190q0 82 54.5 140.5t131.5 58.5q81 0 133.5 -58t52.5 -141q0 -82 -54.5 -140t-131.5 -58t-131.5 58t-54.5 140zM90 176q10 -78 46.5 -124t96.5 -39q59 7 84 61t15 132t-46.5 124.5t-96.5 38.5q-59 -7 -83.5 -60.5t-15.5 -132.5zM330 574q0 -16 -11.5 -27.5 t-27.5 -11.5t-27 11.5t-11 27.5t11 27t27 11t27.5 -11t11.5 -27zM177 574q0 -16 -11.5 -27.5t-27.5 -11.5t-27 11.5t-11 27.5t11 27t27 11t27.5 -11t11.5 -27z" />
<glyph unicode="&#xf7;" horiz-adv-x="480" d="M276 328q0 -16 -11 -27t-27 -11t-27 11t-11 27t11 27t27 11t27 -11t11 -27zM431 165h-382v42h382v-42zM276 32q0 -16 -11 -27.5t-27 -11.5t-27 11.5t-11 27.5t11 27.5t27 11.5t27 -11.5t11 -27.5z" />
<glyph unicode="&#xf8;" horiz-adv-x="419" d="M410 384l-59 -62q45 -56 45 -132q0 -82 -54.5 -140t-131.5 -58q-73 0 -126 51l-41 -43h-36l60 63q-43 54 -43 127q0 82 54.5 140.5t131.5 58.5q68 0 122 -47l41 42h37zM332 206q-4 39 -19 77l-195 -204q41 -76 115 -66q59 7 84 61t15 132zM90 176q7 -46 17 -72l193 203 q-39 71 -111 62q-59 -7 -83.5 -60.5t-15.5 -132.5z" />
<glyph unicode="&#xf9;" horiz-adv-x="464" d="M210 26q16 0 50 15.5t65 40.5v250q0 12 -11.5 19.5t-23.5 8.5l-11 2v17h108l-1 -324q0 -24 11 -24l36 3v-16q-16 0 -91 -22h-17l4 59q-20 -17 -54 -33.5t-57 -25.5l-24 -8q-57 0 -87 32.5t-30 67.5v244q0 13 -12 20.5t-23 8.5l-12 1v17h109l-1 -291q0 -24 17.5 -43 t54.5 -19zM340 508h-17q-98 51 -198 93v11q36 -2 102 0q20 -22 113 -104z" />
<glyph unicode="&#xfa;" horiz-adv-x="464" d="M210 26q16 0 50 15.5t65 40.5v250q0 12 -11.5 19.5t-23.5 8.5l-11 2v17h108l-1 -324q0 -24 11 -24l36 3v-16q-16 0 -91 -22h-17l4 59q-20 -17 -54 -33.5t-57 -25.5l-24 -8q-57 0 -87 32.5t-30 67.5v244q0 13 -12 20.5t-23 8.5l-12 1v17h109l-1 -291q0 -24 17.5 -43 t54.5 -19zM355 601q-105 -44 -199 -93h-17q93 82 112 104q68 -2 104 0v-11z" />
<glyph unicode="&#xfb;" horiz-adv-x="464" d="M210 26q16 0 50 15.5t65 40.5v250q0 12 -11.5 19.5t-23.5 8.5l-11 2v17h108l-1 -324q0 -24 11 -24l36 3v-16q-16 0 -91 -22h-17l4 59q-20 -17 -54 -33.5t-57 -25.5l-24 -8q-57 0 -87 32.5t-30 67.5v244q0 13 -12 20.5t-23 8.5l-12 1v17h109l-1 -291q0 -24 17.5 -43 t54.5 -19zM355 522h-72l-72 71l-74 -71h-29l124 123z" />
<glyph unicode="&#xfc;" horiz-adv-x="464" d="M210 26q16 0 50 15.5t65 40.5v250q0 12 -11.5 19.5t-23.5 8.5l-11 2v17h108l-1 -324q0 -24 11 -24l36 3v-16q-16 0 -91 -22h-17l4 59q-20 -17 -54 -33.5t-57 -25.5l-24 -8q-57 0 -87 32.5t-30 67.5v244q0 13 -12 20.5t-23 8.5l-12 1v17h109l-1 -291q0 -24 17.5 -43 t54.5 -19zM347 574q0 -16 -11.5 -27.5t-27.5 -11.5t-27 11.5t-11 27.5t11 27t27 11t27.5 -11t11.5 -27zM194 574q0 -16 -11.5 -27.5t-27.5 -11.5t-27 11.5t-11 27.5t11 27t27 11t27.5 -11t11.5 -27z" />
<glyph unicode="&#xfd;" horiz-adv-x="446" d="M378 326l-146 -318q-22 -49 -38.5 -78.5t-40.5 -60t-54 -44.5t-67 -14l-63 5v45q53 -17 84 -11q96 17 153 158l5 15h-23l-124 305q-7 16 -20.5 24t-23.5 8l-10 1v17h152v-17q-38 0 -38 -22q0 -1 2 -11l93 -235l10 -33l11 33l96 235q0 2 0.5 6t0.5 5q0 10 -9.5 15.5 t-19.5 5.5l-9 1v17h137v-17q-42 -2 -58 -35zM363 601q-105 -44 -199 -93h-17q93 82 112 104q68 -2 104 0v-11z" />
<glyph unicode="&#xfe;" horiz-adv-x="377" d="M351 134q0 -58 -43.5 -96t-106.5 -38l-27 1v12q26 -2 52 5q26 9 50 36.5t24 70.5q0 46 -31 73t-68 27q-38 0 -46 -2q-6 0 -8 -2.5t-2 -10.5q0 -34 -0.5 -102t-0.5 -101q0 -46 1.5 -73.5t1.5 -29.5q0 -39 29 -43l25 -1v-13q-46 2 -85 2l-78 -2v13q15 0 26 3q7 2 10 4t7 11 t5 25q4 48 4 103v201q0 21 0.5 60.5t0.5 72t-1 60.5q0 39 -28 42l-26 3v12q44 -2 84 -2l77 2v-12q-15 -1 -26 -3q-19 -6 -22 -41q-2 -22 -4 -155q46 4 84 4q44 0 83 -31t39 -85z" />
<glyph unicode="&#xff;" horiz-adv-x="446" d="M378 326l-146 -318q-22 -49 -38.5 -78.5t-40.5 -60t-54 -44.5t-67 -14l-63 5v45q53 -17 84 -11q96 17 153 158l5 15h-23l-124 305q-7 16 -20.5 24t-23.5 8l-10 1v17h152v-17q-38 0 -38 -22q0 -1 2 -11l93 -235l10 -33l11 33l96 235q0 2 0.5 6t0.5 5q0 10 -9.5 15.5 t-19.5 5.5l-9 1v17h137v-17q-42 -2 -58 -35zM353 574q0 -16 -11.5 -27.5t-27.5 -11.5t-27 11.5t-11 27.5t11 27t27 11t27.5 -11t11.5 -27zM200 574q0 -16 -11.5 -27.5t-27.5 -11.5t-27 11.5t-11 27.5t11 27t27 11t27.5 -11t11.5 -27z" />
<glyph unicode="&#x152;" horiz-adv-x="949" d="M928 113q-9 -58 -9 -113q-115 3 -173 3l-210 -3v12q38 -4 51 15q9 13 9 61l1 37q-41 -70 -109.5 -103.5t-146.5 -33.5q-131 0 -220.5 81t-89.5 233q0 99 49.5 172.5t119 107t142.5 33.5q87 0 155 -34.5t102 -100.5q-2 58 -6 75v2q0 28 -22 32l-27 4v12q89 -3 140 -3 l214 3q-2 -26 -2 -50q0 -21 2 -53h-11q0 46 -14 59q-12 13 -98 13q-13 0 -59.5 -2.5t-49.5 -3.5q-1 0 -4 -1t-4.5 -2t-3 -4t-1.5 -7v-199q0 -15 12 -15q5 0 44 -0.5t47 -0.5q71 0 79 4q15 3 17 11l4 20h12q-3 -50 0 -113h-12q2 30 -9 37q-13 9 -88 9q-83 0 -95 -2 q-11 -2 -11 -13q0 -131 5 -216q2 -17 9 -24.5t26 -9.5q29 -3 87 -3q38 0 83 3q33 4 42 28q3 8 5.5 18.5t3.5 17.5v7h14zM596 302q0 114 -75.5 198.5t-178.5 84.5q-112 0 -183 -76.5t-71 -205.5q0 -116 75 -198t178 -82q104 0 179.5 72t75.5 207z" />
<glyph unicode="&#x153;" horiz-adv-x="654" d="M632 230q-18 1 -238 1q-2 -28 3 -55q9 -75 52.5 -120t99.5 -36q32 5 62 24l10 -15q-34 -31 -88 -37q-115 -12 -170 86q-26 -40 -66.5 -63t-86.5 -23q-77 0 -131.5 58t-54.5 140t54.5 140.5t131.5 58.5q100 0 155 -87q50 87 135 87q37 0 65 -18t41.5 -45.5t19.5 -52 t6 -43.5zM90 176q10 -78 46.5 -124t96.5 -39q59 7 84 61t15 132t-46.5 124.5t-96.5 38.5q-59 -7 -83.5 -60.5t-15.5 -132.5zM484 368q-72 -10 -87 -98h169q0 43 -22.5 73t-59.5 25z" />
<glyph unicode="&#x178;" horiz-adv-x="607" d="M428 651q0 -16 -11.5 -27.5t-27.5 -11.5t-26.5 11.5t-10.5 27.5t10.5 27.5t26.5 11.5t27.5 -11.5t11.5 -27.5zM276 651q0 -16 -11.5 -27.5t-27.5 -11.5t-27 11.5t-11 27.5t11 27.5t27 11.5t27.5 -11.5t11.5 -27.5zM599 591q-48 -6 -84 -25q-64 -36 -118 -123t-59 -160 q-4 -73 1 -212q2 -45 29 -53l38 -6v-12q-58 3 -93 3l-100 -3v12q15 1 28 5q9 2 13.5 4t10.5 14.5t7 35.5q4 183 -1 210q-10 61 -64.5 151t-113.5 132q-29 19 -85 22v12q34 11 81 11q54 0 103 -51q31 -33 73 -111.5t46 -114.5q8 44 44.5 118.5t82.5 114.5q50 44 111 44 q10 0 22.5 -2t20.5 -4l7 -2v-10z" />
<glyph unicode="&#x2c6;" d="M237 522h-72l-72 71l-74 -71h-29l124 123z" />
<glyph unicode="&#x2dc;" d="M222 618v-14.5v-17.5t-1 -15.5t-4 -15.5t-7.5 -11t-11.5 -9.5t-17 -2.5q-26 0 -73 21t-65 21q-16 0 -16 -42h-22v13v17t1 16t3.5 16.5t6.5 12.5t10.5 10t15.5 3q23 0 72 -21t70 -21q16 0 16 40h22z" />
<glyph unicode="&#x2000;" horiz-adv-x="384" />
<glyph unicode="&#x2001;" horiz-adv-x="768" />
<glyph unicode="&#x2002;" horiz-adv-x="384" />
<glyph unicode="&#x2003;" horiz-adv-x="768" />
<glyph unicode="&#x2004;" horiz-adv-x="256" />
<glyph unicode="&#x2005;" horiz-adv-x="192" />
<glyph unicode="&#x2006;" horiz-adv-x="128" />
<glyph unicode="&#x2007;" horiz-adv-x="128" />
<glyph unicode="&#x2008;" horiz-adv-x="96" />
<glyph unicode="&#x2009;" horiz-adv-x="153" />
<glyph unicode="&#x200a;" horiz-adv-x="42" />
<glyph unicode="&#x2010;" horiz-adv-x="293" d="M249 189h-205v45h205v-45z" />
<glyph unicode="&#x2011;" horiz-adv-x="293" d="M249 189h-205v45h205v-45z" />
<glyph unicode="&#x2012;" horiz-adv-x="293" d="M249 189h-205v45h205v-45z" />
<glyph unicode="&#x2013;" horiz-adv-x="431" d="M423 181h-415v53h415v-53z" />
<glyph unicode="&#x2014;" horiz-adv-x="491" d="M483 181h-475v53h475v-53z" />
<glyph unicode="&#x2018;" d="M158 604q-22 -19 -43 -59q-19 -36 -1 -36q12 0 21.5 -11.5t9.5 -27.5t-11.5 -27t-27.5 -11t-27 11t-11 27q0 72 76 144z" />
<glyph unicode="&#x2019;" d="M158 575q0 -71 -77 -143l-13 10q22 21 43 61q18 34 0 34q-12 0 -21.5 11t-9.5 27t11.5 27.5t27.5 11.5t27.5 -11.5t11.5 -27.5z" />
<glyph unicode="&#x201a;" horiz-adv-x="178" d="M127 31q0 -72 -76 -144l-14 11q22 19 43 59q18 35 1 35q-12 0 -21.5 11.5t-9.5 27.5t11.5 27.5t27.5 11.5t27 -11.5t11 -27.5z" />
<glyph unicode="&#x201c;" horiz-adv-x="345" d="M278 604q-22 -21 -43 -61q-18 -34 0 -34q12 0 21.5 -11.5t9.5 -27.5t-11.5 -27t-27.5 -11t-27 11t-11 27q0 72 76 144zM158 604q-22 -19 -43 -59q-19 -36 -1 -36q12 0 21.5 -11.5t9.5 -27.5t-11.5 -27t-27.5 -11t-27 11t-11 27q0 72 76 144z" />
<glyph unicode="&#x201d;" horiz-adv-x="345" d="M283 575q0 -71 -77 -143l-13 10q22 21 43 61q18 34 0 34q-12 0 -21.5 11.5t-9.5 26.5q0 16 11.5 27.5t27.5 11.5t27.5 -11.5t11.5 -27.5zM158 575q0 -71 -77 -143l-13 10q22 21 43 61q18 34 0 34q-12 0 -21.5 11t-9.5 27t11.5 27.5t27.5 11.5t27.5 -11.5t11.5 -27.5z" />
<glyph unicode="&#x201e;" horiz-adv-x="299" d="M252 31q0 -72 -76 -144l-13 11q23 22 43 61q17 33 0 33q-12 0 -21.5 11.5t-9.5 27.5t11.5 27.5t27.5 11.5t27 -11.5t11 -27.5zM127 31q0 -72 -76 -144l-14 11q22 19 43 59q18 35 1 35q-12 0 -21.5 11.5t-9.5 27.5t11.5 27.5t27.5 11.5t27 -11.5t11 -27.5z" />
<glyph unicode="&#x2022;" horiz-adv-x="409" d="M316 282q0 -46 -33 -79t-79 -33q-47 0 -80 33t-33 79t33.5 79.5t79.5 33.5t79 -33t33 -80z" />
<glyph unicode="&#x2026;" horiz-adv-x="787" d="M684 32q0 -16 -11 -27.5t-27 -11.5t-27 11.5t-11 27.5t11 27.5t27 11.5t27 -11.5t11 -27.5zM432 32q0 -16 -11 -27.5t-27 -11.5t-27.5 11.5t-11.5 27.5t11.5 27.5t27.5 11.5t27 -11.5t11 -27.5zM179 32q0 -16 -11 -27.5t-27 -11.5t-27.5 11.5t-11.5 27.5t11.5 27.5 t27.5 11.5t27 -11.5t11 -27.5z" />
<glyph unicode="&#x202f;" horiz-adv-x="153" />
<glyph unicode="&#x2039;" d="M183 321l-62 -107l58 -120l-16 -14l-118 127l120 126z" />
<glyph unicode="&#x203a;" d="M183 207l-120 -127l-18 12l61 108l-57 120l15 13z" />
<glyph unicode="&#x205f;" horiz-adv-x="192" />
<glyph unicode="&#x20ac;" horiz-adv-x="647" d="M625 109q-8 -34 -16 -91q-1 0 -18 -5.5t-25 -7t-27 -5t-42.5 -5t-52.5 -1.5q-33 0 -68.5 8.5t-72 27.5t-65 55t-40.5 85h-179l25 50h146q-1 7 -1 22q0 13 1 18h-126l25 51h111q24 80 97 130t162 50q40 0 91 -6t63 -12q-7 -34 0 -83h-14q0 32 -14 45q-25 25 -127 25 q-75 0 -131 -39.5t-75 -109.5h219l-25 -51h-202v-18q0 -15 1 -22h181l-25 -50h-147q22 -66 75.5 -104t114.5 -38q52 0 84.5 6.5t41.5 12.5t19 17q6 6 11.5 17t7.5 19l2 9h15z" />
<glyph unicode="&#x2122;" horiz-adv-x="671" d="M646 309q-31 2 -38 2l-47 -2v7q10 0 14 2q9 6 8 24q-12 142 -23 236q-22 -49 -118 -270h-6q-63 156 -113 268q-9 -104 -11 -116q-1 -7 -5 -62t-4 -62q-2 -15 7 -17l16 -3v-7q-23 2 -37 2l-43 -2v6q10 0 17 2l6 1.5t5 5t4 13.5q4 24 13 123q0 44 9 125q0 17 -9 19l-13 2v6 q24 -1 36 -1l26 1q78 -189 104 -249q46 94 106 249q22 -1 28 -1l35 1v-6q-11 0 -14 -1l-3 -2q-4 -2 -6 -5.5t-2 -8.5q1 -9 13 -129q8 -82 15 -116q2 -20 15 -25l15 -3v-7zM273 561h-6q-4 17 -5 20q0 11 -16 11h-76q-7 0 -7 -4v-127q0 -93 2 -121q1 -21 19 -22l15 -2v-7 q-36 2 -52 2l-47 -2v6q8 0 14 2q15 0 17 22q2 21 2 122q0 8 -0.5 39t-0.5 58.5v28.5q0 4 -1 4.5t-6 0.5h-74q-15 0 -19 -14l-3 -17h-7q2 15 2 51q80 -1 123 -1l126 1q-3 -15 0 -51z" />
<glyph unicode="&#x25fc;" horiz-adv-x="380" d="M0 380h380v-380h-380v380z" />
<glyph unicode="&#xfb01;" horiz-adv-x="422" d="M284 66v258v15h-147v-273q0 -40 45 -49v-17h-152v17q23 2 34 13t11 36v273h-52v31l52 8v30q0 89 33.5 144t106.5 55q16 0 32 -1.5t23 -3.5l8 -1l-11 -30q-52 16 -73 13q-36 -6 -48.5 -28t-12.5 -61q0 -13 2 -56t2 -61h209v-312q0 -40 45 -49v-17h-152v17q23 2 34 13 t11 36zM276 529q0 17 11.5 28.5t27.5 11.5t27.5 -12t11.5 -28t-11.5 -27.5t-27.5 -11.5q-17 0 -28 11t-11 28z" />
<glyph unicode="&#xfb02;" horiz-adv-x="422" d="M284 66v498q-66 23 -90 20q-36 -6 -48.5 -28t-12.5 -61q0 -13 2 -56t2 -61h78l-15 -39h-63v-273q0 -40 45 -49v-17h-152v17q23 2 34 13t11 36v273h-52v31l52 8v30q0 89 33.5 144t106.5 55q16 0 44.5 -5.5t48.5 -11.5l21 -5h17v-519q0 -40 45 -49v-17h-152v17q23 2 34 13 t11 36z" />
</font>
</defs>
</svg>
